<?xml version="1.0" standalone="no"?>
<svg xmlns="http://www.w3.org/2000/svg" xmlns:xlink="http://www.w3.org/1999/xlink" width="1651pt" height="450pt" viewBox="0.00 0.00 1651 449.60">
<g id="graph0" class="graph" transform="translate(4,445.6000061035156) scale(1)" data-name="G">

<polygon fill="white" stroke="none" points="-4,4 -4,-445.6 1647,-445.6 1647,4 -4,4"/>
<g id="clust1" class="cluster" data-name="routes">

<path fill="none" stroke="black" d="M20,-8C20,-8 563,-8 563,-8 569,-8 575,-14 575,-20 575,-20 575,-414.6 575,-414.6 575,-420.6 569,-426.6 563,-426.6 563,-426.6 20,-426.6 20,-426.6 14,-426.6 8,-420.6 8,-414.6 8,-414.6 8,-20 8,-20 8,-14 14,-8 20,-8"/>
<text text-anchor="start" x="256.49" y="-411" font-family="Helvetica,Arial,sans-serif" font-weight="bold" font-size="14.00">Application</text>
</g>
<g id="clust2" class="cluster" data-name="tests">

<path fill="none" stroke="black" d="M822,-342.8C822,-342.8 1623,-342.8 1623,-342.8 1629,-342.8 1635,-348.8 1635,-354.8 1635,-354.8 1635,-421.6 1635,-421.6 1635,-427.6 1629,-433.6 1623,-433.6 1623,-433.6 822,-433.6 822,-433.6 816,-433.6 810,-427.6 810,-421.6 810,-421.6 810,-354.8 810,-354.8 810,-348.8 816,-342.8 822,-342.8"/>
<text text-anchor="start" x="1172.91" y="-418" font-family="Helvetica,Arial,sans-serif" font-weight="bold" font-size="14.00">Functional Tests</text>
</g>
<g id="clust3" class="cluster" data-name="page_object_model">

<path fill="none" stroke="black" d="M595,-60C595,-60 1138,-60 1138,-60 1144,-60 1150,-66 1150,-72 1150,-72 1150,-303.8 1150,-303.8 1150,-309.8 1144,-315.8 1138,-315.8 1138,-315.8 595,-315.8 595,-315.8 589,-315.8 583,-309.8 583,-303.8 583,-303.8 583,-72 583,-72 583,-66 589,-60 595,-60"/>
<text text-anchor="start" x="809.35" y="-69.2" font-family="Helvetica,Arial,sans-serif" font-weight="bold" font-size="14.00">Page Object Model</text>
</g>
<!-- route_index -->
<g id="node1" class="node" pointer-events="visible" data-name="route_index">

<polygon fill="none" stroke="black" points="317.29,-393.8 260.71,-393.8 260.71,-357.8 323.29,-357.8 323.29,-387.8 317.29,-393.8"/>
<polyline fill="none" stroke="black" points="317.29,-393.8 317.29,-387.8"/>
<polyline fill="none" stroke="black" points="323.29,-387.8 317.29,-387.8"/>
<text text-anchor="start" x="268.86" y="-372.6" font-family="Times,serif" font-weight="bold" font-size="14.00">index.js</text>
</g>
<!-- route_profile_gate -->
<g id="node2" class="node" pointer-events="visible" data-name="route_profiles" data-comment="route_profile_gate">

<polygon fill="none" stroke="black" points="138.04,-314.8 15.96,-314.8 15.96,-264.8 144.04,-264.8 144.04,-308.8 138.04,-314.8"/>
<polyline fill="none" stroke="black" points="138.04,-314.8 138.04,-308.8"/>
<polyline fill="none" stroke="black" points="144.04,-308.8 138.04,-308.8"/>
<text text-anchor="start" x="50.26" y="-299.2" font-family="Times,serif" font-weight="bold" font-size="14.00">Profiles.js</text>
<text text-anchor="start" x="23.98" y="-271.2" font-family="Times,serif" font-size="14.00">/** @tag profiles */</text>
</g>
<!-- route_index&#45;&gt;route_profile_gate -->
<g id="edge2" class="edge" data-name="route_index-&gt;route_profiles" data-comment="route_index-&gt;route_profile_gate">

<path fill="none" stroke="black" d="M260.26,-362.22C231.77,-350.94 188.9,-333.95 152.11,-319.37"/>
<polygon fill="black" stroke="black" points="153.4,-316.12 142.82,-315.69 150.83,-322.63 153.4,-316.12"/>
</g>
<!-- route_search -->
<g id="node3" class="node" pointer-events="visible" data-name="route_search">

<polygon fill="none" stroke="black" points="277.53,-314.8 162.47,-314.8 162.47,-264.8 283.53,-264.8 283.53,-308.8 277.53,-314.8"/>
<polyline fill="none" stroke="black" points="277.53,-314.8 277.53,-308.8"/>
<polyline fill="none" stroke="black" points="283.53,-308.8 277.53,-308.8"/>
<text text-anchor="start" x="195.59" y="-299.2" font-family="Times,serif" font-weight="bold" font-size="14.00">Search.js</text>
<text text-anchor="start" x="170.49" y="-271.2" font-family="Times,serif" font-size="14.00">/** @tag search */</text>
</g>
<!-- route_index&#45;&gt;route_search -->
<g id="edge4" class="edge" data-name="route_index-&gt;route_search">

<path fill="none" stroke="black" d="M277.7,-357.4C269.79,-347.76 259.69,-335.47 250.33,-324.07"/>
<polygon fill="black" stroke="black" points="253.05,-321.86 244,-316.36 247.64,-326.31 253.05,-321.86"/>
</g>
<!-- route_mdp -->
<g id="node4" class="node" pointer-events="visible" data-name="route_details" data-comment="route_mdp">

<polygon fill="none" stroke="black" points="416.82,-314.8 301.18,-314.8 301.18,-264.8 422.82,-264.8 422.82,-308.8 416.82,-314.8"/>
<polyline fill="none" stroke="black" points="416.82,-314.8 416.82,-308.8"/>
<polyline fill="none" stroke="black" points="422.82,-308.8 416.82,-308.8"/>
<text text-anchor="start" x="334.59" y="-299.2" font-family="Times,serif" font-weight="bold" font-size="14.00">Details.js</text>
<text text-anchor="start" x="309.09" y="-271.2" font-family="Times,serif" font-size="14.00">/** @tag details */</text>
</g>
<!-- route_index&#45;&gt;route_mdp -->
<g id="edge3" class="edge" data-name="route_index-&gt;route_details" data-comment="route_index-&gt;route_mdp">

<path fill="none" stroke="black" d="M306.5,-357.4C314.61,-347.67 324.98,-335.22 334.56,-323.73"/>
<polygon fill="black" stroke="black" points="336.99,-326.28 340.71,-316.35 331.62,-321.79 336.99,-326.28"/>
</g>
<!-- route_browse -->
<g id="node5" class="node" pointer-events="visible" data-name="route_browse">

<polygon fill="none" stroke="black" points="560.71,-314.8 441.29,-314.8 441.29,-264.8 566.71,-264.8 566.71,-308.8 560.71,-314.8"/>
<polyline fill="none" stroke="black" points="560.71,-314.8 560.71,-308.8"/>
<polyline fill="none" stroke="black" points="566.71,-308.8 560.71,-308.8"/>
<text text-anchor="start" x="475.03" y="-299.2" font-family="Times,serif" font-weight="bold" font-size="14.00">Browse.js</text>
<text text-anchor="start" x="449.15" y="-271.2" font-family="Times,serif" font-size="14.00">/** @tag browse */</text>
</g>
<!-- route_index&#45;&gt;route_browse -->
<g id="edge1" class="edge" data-name="route_index-&gt;route_browse">

<path fill="none" stroke="black" d="M323.74,-362.22C352.23,-350.94 395.1,-333.95 431.89,-319.37"/>
<polygon fill="black" stroke="black" points="433.17,-322.63 441.18,-315.69 430.6,-316.12 433.17,-322.63"/>
</g>
<!-- component_menu -->
<g id="node6" class="node" pointer-events="visible" data-name="component_menu">

<polygon fill="none" stroke="black" points="313.11,-221.8 254.89,-221.8 254.89,-185.8 319.11,-185.8 319.11,-215.8 313.11,-221.8"/>
<polyline fill="none" stroke="black" points="313.11,-221.8 313.11,-215.8"/>
<polyline fill="none" stroke="black" points="319.11,-215.8 313.11,-215.8"/>
<text text-anchor="start" x="262.69" y="-200.6" font-family="Times,serif" font-weight="bold" font-size="14.00">Menu.js</text>
</g>
<!-- route_profile_gate&#45;&gt;component_menu -->
<g id="edge7" class="edge" data-name="route_profiles-&gt;component_menu" data-comment="route_profile_gate-&gt;component_menu">

<path fill="none" stroke="black" d="M144.5,-266.84C182.8,-253.54 227.41,-237.51 246,-228.8 246.91,-228.37 247.84,-227.93 248.76,-227.47"/>
<polygon fill="black" stroke="black" points="250.12,-230.72 257.35,-222.97 246.86,-224.52 250.12,-230.72"/>
</g>
<!-- component_image -->
<g id="node11" class="node" pointer-events="visible" data-name="component_image">

<polygon fill="none" stroke="black" points="314.43,-52 253.57,-52 253.57,-16 320.43,-16 320.43,-46 314.43,-52"/>
<polyline fill="none" stroke="black" points="314.43,-52 314.43,-46"/>
<polyline fill="none" stroke="black" points="320.43,-46 314.43,-46"/>
<text text-anchor="start" x="261.53" y="-30.8" font-family="Times,serif" font-weight="bold" font-size="14.00">Image.js</text>
</g>
<!-- route_profile_gate&#45;&gt;component_image -->
<g id="edge8" class="edge" data-name="route_profiles-&gt;component_image" data-comment="route_profile_gate-&gt;component_image">

<path fill="none" stroke="black" d="M77.4,-264.31C76.01,-241.09 76.78,-205.85 90,-178.8 123.95,-109.36 151.01,-100.24 217,-60 224.91,-55.18 233.89,-51.09 242.72,-47.71"/>
<polygon fill="black" stroke="black" points="243.66,-51.09 251.9,-44.44 241.31,-44.5 243.66,-51.09"/>
</g>
<!-- route_search&#45;&gt;component_menu -->
<g id="edge11" class="edge" data-name="route_search-&gt;component_menu">

<path fill="none" stroke="black" d="M241.51,-264.5C249.51,-254.01 258.88,-241.71 267.03,-231.01"/>
<polygon fill="black" stroke="black" points="269.62,-233.39 272.89,-223.31 264.05,-229.15 269.62,-233.39"/>
</g>
<!-- component_keyboard -->
<g id="node7" class="node" pointer-events="visible" data-name="component_keyboard">

<polygon fill="none" stroke="black" points="230.87,-228.8 99.13,-228.8 99.13,-178.8 236.87,-178.8 236.87,-222.8 230.87,-228.8"/>
<polyline fill="none" stroke="black" points="230.87,-228.8 230.87,-222.8"/>
<polyline fill="none" stroke="black" points="236.87,-222.8 230.87,-222.8"/>
<text text-anchor="start" x="131.25" y="-213.2" font-family="Times,serif" font-weight="bold" font-size="14.00">Keyboard.js</text>
<text text-anchor="start" x="107.32" y="-185.2" font-family="Times,serif" font-size="14.00">/** @tag keyboard */</text>
</g>
<!-- route_search&#45;&gt;component_keyboard -->
<g id="edge13" class="edge" data-name="route_search-&gt;component_keyboard">

<path fill="none" stroke="black" d="M207.09,-264.5C201.79,-256.41 195.78,-247.23 190.1,-238.55"/>
<polygon fill="black" stroke="black" points="193.11,-236.76 184.7,-230.31 187.25,-240.59 193.11,-236.76"/>
</g>
<!-- component_boxshot -->
<g id="node8" class="node" pointer-events="visible" data-name="component_boxshot">

<polygon fill="none" stroke="black" points="408.84,-221.8 337.16,-221.8 337.16,-185.8 414.84,-185.8 414.84,-215.8 408.84,-221.8"/>
<polyline fill="none" stroke="black" points="408.84,-221.8 408.84,-215.8"/>
<polyline fill="none" stroke="black" points="414.84,-215.8 408.84,-215.8"/>
<text text-anchor="start" x="345.08" y="-200.6" font-family="Times,serif" font-weight="bold" font-size="14.00">Boxshot.js</text>
</g>
<!-- route_search&#45;&gt;component_boxshot -->
<g id="edge12" class="edge" data-name="route_search-&gt;component_boxshot">

<path fill="none" stroke="black" d="M267.25,-264.5C288.49,-252.84 313.78,-238.96 334.63,-227.51"/>
<polygon fill="black" stroke="black" points="336.06,-230.72 343.15,-222.84 332.7,-224.58 336.06,-230.72"/>
</g>
<!-- route_mdp&#45;&gt;component_menu -->
<g id="edge10" class="edge" data-name="route_details-&gt;component_menu" data-comment="route_mdp-&gt;component_menu">

<path fill="none" stroke="black" d="M340.31,-264.5C330.84,-253.9 319.74,-241.46 310.12,-230.69"/>
<polygon fill="black" stroke="black" points="312.73,-228.37 303.46,-223.24 307.51,-233.03 312.73,-228.37"/>
</g>
<!-- component_bob -->
<g id="node9" class="node" pointer-events="visible" data-name="component_synopsis" data-comment="component_bob">

<polygon fill="none" stroke="black" points="508.76,-221.8 433.24,-221.8 433.24,-185.8 514.76,-185.8 514.76,-215.8 508.76,-221.8"/>
<polyline fill="none" stroke="black" points="508.76,-221.8 508.76,-215.8"/>
<polyline fill="none" stroke="black" points="514.76,-215.8 508.76,-215.8"/>
<text text-anchor="start" x="441.12" y="-200.6" font-family="Times,serif" font-weight="bold" font-size="14.00">Synopsis.js</text>
</g>
<!-- route_mdp&#45;&gt;component_bob -->
<g id="edge9" class="edge" data-name="route_details-&gt;component_synopsis" data-comment="route_mdp-&gt;component_bob">

<path fill="none" stroke="black" d="M394.4,-264.5C409.38,-253.27 427.11,-239.96 442.04,-228.77"/>
<polygon fill="black" stroke="black" points="443.81,-231.82 449.71,-223.02 439.61,-226.22 443.81,-231.82"/>
</g>
<!-- route_browse&#45;&gt;component_boxshot -->
<g id="edge6" class="edge" data-name="route_browse-&gt;component_boxshot">

<path fill="none" stroke="black" d="M466.98,-264.5C449.53,-253.06 428.82,-239.46 411.56,-228.14"/>
<polygon fill="black" stroke="black" points="413.92,-225.5 403.64,-222.94 410.08,-231.35 413.92,-225.5"/>
</g>
<!-- route_browse&#45;&gt;component_bob -->
<g id="edge5" class="edge" data-name="route_browse-&gt;component_synopsis" data-comment="route_browse-&gt;component_bob">

<path fill="none" stroke="black" d="M495.32,-264.5C491.76,-254.54 487.63,-242.95 483.95,-232.65"/>
<polygon fill="black" stroke="black" points="487.35,-231.77 480.69,-223.53 480.76,-234.13 487.35,-231.77"/>
</g>
<!-- component_button -->
<g id="node10" class="node" pointer-events="visible" data-name="component_button">

<polygon fill="none" stroke="black" points="341.55,-142.8 226.45,-142.8 226.45,-92.8 347.55,-92.8 347.55,-136.8 341.55,-142.8"/>
<polyline fill="none" stroke="black" points="341.55,-142.8 341.55,-136.8"/>
<polyline fill="none" stroke="black" points="347.55,-136.8 341.55,-136.8"/>
<text text-anchor="start" x="259.58" y="-127.2" font-family="Times,serif" font-weight="bold" font-size="14.00">Button.js</text>
<text text-anchor="start" x="234.47" y="-99.2" font-family="Times,serif" font-size="14.00">/** @tag button */</text>
</g>
<!-- component_menu&#45;&gt;component_button -->
<g id="edge14" class="edge" data-name="component_menu-&gt;component_button">

<path fill="none" stroke="black" d="M287,-185.4C287,-176.43 287,-165.16 287,-154.45"/>
<polygon fill="black" stroke="black" points="290.5,-154.7 287,-144.7 283.5,-154.7 290.5,-154.7"/>
</g>
<!-- component_keyboard&#45;&gt;component_button -->
<g id="edge15" class="edge" data-name="component_keyboard-&gt;component_button">

<path fill="none" stroke="black" d="M202.42,-178.5C215.25,-169.45 229.98,-159.05 243.52,-149.5"/>
<polygon fill="black" stroke="black" points="245.27,-152.54 251.42,-143.91 241.23,-146.82 245.27,-152.54"/>
</g>
<!-- component_boxshot&#45;&gt;component_image -->
<g id="edge16" class="edge" data-name="component_boxshot-&gt;component_image">

<path fill="none" stroke="black" d="M378.95,-185.66C382.95,-156.44 386.57,-96.56 357,-60 350.51,-51.98 341.26,-46.53 331.59,-42.83"/>
<polygon fill="black" stroke="black" points="332.66,-39.5 322.07,-39.81 330.54,-46.17 332.66,-39.5"/>
</g>
<!-- component_text -->
<g id="node12" class="node" pointer-events="visible" data-name="component_text">

<polygon fill="none" stroke="black" points="421.32,-52 370.68,-52 370.68,-16 427.32,-16 427.32,-46 421.32,-52"/>
<polyline fill="none" stroke="black" points="421.32,-52 421.32,-46"/>
<polyline fill="none" stroke="black" points="427.32,-46 421.32,-46"/>
<text text-anchor="start" x="378.59" y="-30.8" font-family="Times,serif" font-weight="bold" font-size="14.00">Text.js</text>
</g>
<!-- component_bob&#45;&gt;component_text -->
<g id="edge17" class="edge" data-name="component_synopsis-&gt;component_text" data-comment="component_bob-&gt;component_text">

<path fill="none" stroke="black" d="M466.26,-185.47C453.29,-156.46 427.07,-97.8 411.47,-62.91"/>
<polygon fill="black" stroke="black" points="414.71,-61.57 407.43,-53.86 408.32,-64.42 414.71,-61.57"/>
</g>
<!-- component_button&#45;&gt;component_image -->
<g id="edge18" class="edge" data-name="component_button-&gt;component_image">

<path fill="none" stroke="black" d="M287,-92.7C287,-83.62 287,-73.2 287,-63.74"/>
<polygon fill="black" stroke="black" points="290.5,-63.96 287,-53.96 283.5,-63.96 290.5,-63.96"/>
</g>
<!-- component_button&#45;&gt;component_text -->
<g id="edge19" class="edge" data-name="component_button-&gt;component_text">

<path fill="none" stroke="black" d="M320.3,-92.48C334.79,-81.89 351.73,-69.52 366.17,-58.98"/>
<polygon fill="black" stroke="black" points="368.01,-61.97 374.02,-53.24 363.88,-56.31 368.01,-61.97"/>
</g>
<!-- test_browse -->
<g id="node13" class="node" pointer-events="visible" data-name="test_browse">

<polygon fill="none" stroke="black" points="1620.71,-400.8 1501.29,-400.8 1501.29,-350.8 1626.71,-350.8 1626.71,-394.8 1620.71,-400.8"/>
<polyline fill="none" stroke="black" points="1620.71,-400.8 1620.71,-394.8"/>
<polyline fill="none" stroke="black" points="1626.71,-394.8 1620.71,-394.8"/>
<text text-anchor="start" x="1523.57" y="-385.2" font-family="Times,serif" font-weight="bold" font-size="14.00">browse.test.js</text>
<text text-anchor="start" x="1509.15" y="-357.2" font-family="Times,serif" font-size="14.00">/** @tag browse */</text>
</g>
<!-- test_button -->
<g id="node14" class="node" pointer-events="visible" data-name="test_button">

<polygon fill="none" stroke="black" points="1477.55,-400.8 1362.45,-400.8 1362.45,-350.8 1483.55,-350.8 1483.55,-394.8 1477.55,-400.8"/>
<polyline fill="none" stroke="black" points="1477.55,-400.8 1477.55,-394.8"/>
<polyline fill="none" stroke="black" points="1483.55,-394.8 1477.55,-394.8"/>
<text text-anchor="start" x="1384.11" y="-385.2" font-family="Times,serif" font-weight="bold" font-size="14.00">button.test.js</text>
<text text-anchor="start" x="1370.47" y="-357.2" font-family="Times,serif" font-size="14.00">/** @tag button */</text>
</g>
<!-- test_keyboard -->
<g id="node15" class="node" pointer-events="visible" data-name="test_keyboard">

<polygon fill="none" stroke="black" points="1338.87,-400.8 1207.13,-400.8 1207.13,-350.8 1344.87,-350.8 1344.87,-394.8 1338.87,-400.8"/>
<polyline fill="none" stroke="black" points="1338.87,-400.8 1338.87,-394.8"/>
<polyline fill="none" stroke="black" points="1344.87,-394.8 1338.87,-394.8"/>
<text text-anchor="start" x="1228.56" y="-385.2" font-family="Times,serif" font-weight="bold" font-size="14.00">keyboard.test.js</text>
<text text-anchor="start" x="1215.32" y="-357.2" font-family="Times,serif" font-size="14.00">/** @tag keyboard */</text>
</g>
<!-- test_mdp -->
<g id="node16" class="node" pointer-events="visible" data-name="test_details" data-comment="test_mdp">

<polygon fill="none" stroke="black" points="1182.82,-400.8 1067.18,-400.8 1067.18,-350.8 1188.82,-350.8 1188.82,-394.8 1182.82,-400.8"/>
<polyline fill="none" stroke="black" points="1182.82,-400.8 1182.82,-394.8"/>
<polyline fill="none" stroke="black" points="1188.82,-394.8 1182.82,-394.8"/>
<text text-anchor="start" x="1089.51" y="-385.2" font-family="Times,serif" font-weight="bold" font-size="14.00">details.test.js</text>
<text text-anchor="start" x="1075.09" y="-357.2" font-family="Times,serif" font-size="14.00">/** @tag details */</text>
</g>
<!-- test_search -->
<g id="node17" class="node" pointer-events="visible" data-name="test_search">

<polygon fill="none" stroke="black" points="1043.53,-400.8 928.47,-400.8 928.47,-350.8 1049.53,-350.8 1049.53,-394.8 1043.53,-400.8"/>
<polyline fill="none" stroke="black" points="1043.53,-400.8 1043.53,-394.8"/>
<polyline fill="none" stroke="black" points="1049.53,-394.8 1043.53,-394.8"/>
<text text-anchor="start" x="950.51" y="-385.2" font-family="Times,serif" font-weight="bold" font-size="14.00">search.test.js</text>
<text text-anchor="start" x="936.49" y="-357.2" font-family="Times,serif" font-size="14.00">/** @tag search */</text>
</g>
<!-- test_smoke -->
<g id="node18" class="node" pointer-events="visible" data-name="test_smoke">

<polygon fill="none" stroke="black" points="904.21,-393.8 817.79,-393.8 817.79,-357.8 910.21,-357.8 910.21,-387.8 904.21,-393.8"/>
<polyline fill="none" stroke="black" points="904.21,-393.8 904.21,-387.8"/>
<polyline fill="none" stroke="black" points="910.21,-387.8 904.21,-387.8"/>
<text text-anchor="start" x="825.9" y="-372.6" font-family="Times,serif" font-weight="bold" font-size="14.00">smoke.test.js</text>
</g>
<!-- pom_index -->
<g id="node19" class="node" pointer-events="visible" data-name="pom_index">

<polygon fill="none" stroke="black" points="889.29,-307.8 832.71,-307.8 832.71,-271.8 895.29,-271.8 895.29,-301.8 889.29,-307.8"/>
<polyline fill="none" stroke="black" points="889.29,-307.8 889.29,-301.8"/>
<polyline fill="none" stroke="black" points="895.29,-301.8 889.29,-301.8"/>
<text text-anchor="start" x="840.86" y="-286.6" font-family="Times,serif" font-weight="bold" font-size="14.00">index.js</text>
</g>
<!-- test_smoke&#45;&gt;pom_index -->
<g id="edge20" class="edge" data-name="test_smoke-&gt;pom_index">

<path fill="none" stroke="black" d="M864,-357.4C864,-346.47 864,-332.12 864,-319.53"/>
<polygon fill="black" stroke="black" points="867.5,-319.7 864,-309.7 860.5,-319.7 867.5,-319.7"/>
</g>
<!-- pom_search -->
<g id="node20" class="node" pointer-events="visible" data-name="pom_search">

<polygon fill="none" stroke="black" points="989.53,-228.8 874.47,-228.8 874.47,-178.8 995.53,-178.8 995.53,-222.8 989.53,-228.8"/>
<polyline fill="none" stroke="black" points="989.53,-228.8 989.53,-222.8"/>
<polyline fill="none" stroke="black" points="995.53,-222.8 989.53,-222.8"/>
<text text-anchor="start" x="907.59" y="-213.2" font-family="Times,serif" font-weight="bold" font-size="14.00">Search.js</text>
<text text-anchor="start" x="882.49" y="-185.2" font-family="Times,serif" font-size="14.00">/** @tag search */</text>
</g>
<!-- pom_index&#45;&gt;pom_search -->
<g id="edge21" class="edge" data-name="pom_index-&gt;pom_search">

<path fill="none" stroke="black" d="M878.71,-271.4C886.93,-261.67 897.45,-249.22 907.16,-237.73"/>
<polygon fill="black" stroke="black" points="909.63,-240.24 913.41,-230.35 904.28,-235.72 909.63,-240.24"/>
</g>
<!-- pom_profile_gate -->
<g id="node21" class="node" pointer-events="visible" data-name="pom_profiles" data-comment="pom_profile_gate">

<polygon fill="none" stroke="black" points="1136.04,-228.8 1013.96,-228.8 1013.96,-178.8 1142.04,-178.8 1142.04,-222.8 1136.04,-228.8"/>
<polyline fill="none" stroke="black" points="1136.04,-228.8 1136.04,-222.8"/>
<polyline fill="none" stroke="black" points="1142.04,-222.8 1136.04,-222.8"/>
<text text-anchor="start" x="1048.26" y="-213.2" font-family="Times,serif" font-weight="bold" font-size="14.00">Profiles.js</text>
<text text-anchor="start" x="1021.98" y="-185.2" font-family="Times,serif" font-size="14.00">/** @tag profiles */</text>
</g>
<!-- pom_index&#45;&gt;pom_profile_gate -->
<g id="edge22" class="edge" data-name="pom_index-&gt;pom_profiles" data-comment="pom_index-&gt;pom_profile_gate">

<path fill="none" stroke="black" d="M895.58,-276.41C924.38,-265.1 968.01,-247.97 1005.38,-233.3"/>
<polygon fill="black" stroke="black" points="1006.3,-236.7 1014.33,-229.79 1003.74,-230.19 1006.3,-236.7"/>
</g>
<!-- pom_mdp -->
<g id="node22" class="node" pointer-events="visible" data-name="pom_details" data-comment="pom_mdp">

<polygon fill="none" stroke="black" points="706.82,-228.8 591.18,-228.8 591.18,-178.8 712.82,-178.8 712.82,-222.8 706.82,-228.8"/>
<polyline fill="none" stroke="black" points="706.82,-228.8 706.82,-222.8"/>
<polyline fill="none" stroke="black" points="712.82,-222.8 706.82,-222.8"/>
<text text-anchor="start" x="624.59" y="-213.2" font-family="Times,serif" font-weight="bold" font-size="14.00">Details.js</text>
<text text-anchor="start" x="599.09" y="-185.2" font-family="Times,serif" font-size="14.00">/** @tag details */</text>
</g>
<!-- pom_index&#45;&gt;pom_mdp -->
<g id="edge23" class="edge" data-name="pom_index-&gt;pom_details" data-comment="pom_index-&gt;pom_mdp">

<path fill="none" stroke="black" d="M832.26,-276.22C803.54,-264.85 760.21,-247.68 723.23,-233.02"/>
<polygon fill="black" stroke="black" points="724.97,-229.95 714.39,-229.52 722.4,-236.46 724.97,-229.95"/>
</g>
<!-- pom_browse -->
<g id="node23" class="node" pointer-events="visible" data-name="pom_browse">

<polygon fill="none" stroke="black" points="850.71,-228.8 731.29,-228.8 731.29,-178.8 856.71,-178.8 856.71,-222.8 850.71,-228.8"/>
<polyline fill="none" stroke="black" points="850.71,-228.8 850.71,-222.8"/>
<polyline fill="none" stroke="black" points="856.71,-222.8 850.71,-222.8"/>
<text text-anchor="start" x="765.03" y="-213.2" font-family="Times,serif" font-weight="bold" font-size="14.00">Browse.js</text>
<text text-anchor="start" x="739.15" y="-185.2" font-family="Times,serif" font-size="14.00">/** @tag browse */</text>
</g>
<!-- pom_index&#45;&gt;pom_browse -->
<g id="edge24" class="edge" data-name="pom_index-&gt;pom_browse">

<path fill="none" stroke="black" d="M849.5,-271.4C841.39,-261.67 831.02,-249.22 821.44,-237.73"/>
<polygon fill="black" stroke="black" points="824.38,-235.79 815.29,-230.35 819.01,-240.28 824.38,-235.79"/>
</g>
<!-- pom_keyboard -->
<g id="node24" class="node" pointer-events="visible" data-name="pom_keyboard">

<polygon fill="none" stroke="black" points="997.87,-142.8 866.13,-142.8 866.13,-92.8 1003.87,-92.8 1003.87,-136.8 997.87,-142.8"/>
<polyline fill="none" stroke="black" points="997.87,-142.8 997.87,-136.8"/>
<polyline fill="none" stroke="black" points="1003.87,-136.8 997.87,-136.8"/>
<text text-anchor="start" x="898.25" y="-127.2" font-family="Times,serif" font-weight="bold" font-size="14.00">Keyboard.js</text>
<text text-anchor="start" x="874.32" y="-99.2" font-family="Times,serif" font-size="14.00">/** @tag keyboard */</text>
</g>
<!-- pom_search&#45;&gt;pom_keyboard -->
<g id="edge25" class="edge" data-name="pom_search-&gt;pom_keyboard">

<path fill="none" stroke="black" d="M935,-178.5C935,-171.02 935,-162.61 935,-154.52"/>
<polygon fill="black" stroke="black" points="938.5,-154.56 935,-144.56 931.5,-154.56 938.5,-154.56"/>
</g>
</g>
</svg>