<?xml version="1.0" encoding="UTF-8" standalone="no"?>
<!DOCTYPE svg PUBLIC "-//W3C//DTD SVG 1.1//EN"
 "http://www.w3.org/Graphics/SVG/1.1/DTD/svg11.dtd">
<!-- Generated by graphviz version 7.0.4 (20221203.1631)
 -->
<!-- Title: G Pages: 1 -->
<svg width="1238pt" height="390pt"
 viewBox="0.00 0.00 1238.00 390.00" xmlns="http://www.w3.org/2000/svg" xmlns:xlink="http://www.w3.org/1999/xlink">
<g id="graph0" class="graph" transform="scale(1 1) rotate(0) translate(4 386)">
<title>G</title>
<polygon fill="white" stroke="none" points="-4,4 -4,-386 1234,-386 1234,4 -4,4"/>
<g id="clust1" class="cluster">
<title>routes</title>
<path fill="none" stroke="black" d="M20,-8C20,-8 398,-8 398,-8 404,-8 410,-14 410,-20 410,-20 410,-362 410,-362 410,-368 404,-374 398,-374 398,-374 20,-374 20,-374 14,-374 8,-368 8,-362 8,-362 8,-20 8,-20 8,-14 14,-8 20,-8"/>
<text text-anchor="start" x="172" y="-359.8" font-family="Helvetica,Arial,sans-serif" font-weight="bold" font-size="14.00">Application</text>
</g>
<g id="clust2" class="cluster">
<title>tests</title>
<path fill="none" stroke="black" d="M554,-299C554,-299 1210,-299 1210,-299 1216,-299 1222,-305 1222,-311 1222,-311 1222,-362 1222,-362 1222,-368 1216,-374 1210,-374 1210,-374 554,-374 554,-374 548,-374 542,-368 542,-362 542,-362 542,-311 542,-311 542,-305 548,-299 554,-299"/>
<text text-anchor="start" x="828" y="-359.8" font-family="Helvetica,Arial,sans-serif" font-weight="bold" font-size="14.00">Functional Tests</text>
</g>
<g id="clust3" class="cluster">
<title>page_object_model</title>
<path fill="none" stroke="black" d="M430,-60C430,-60 764,-60 764,-60 770,-60 776,-66 776,-72 776,-72 776,-267 776,-267 776,-273 770,-279 764,-279 764,-279 430,-279 430,-279 424,-279 418,-273 418,-267 418,-267 418,-72 418,-72 418,-66 424,-60 430,-60"/>
<text text-anchor="start" x="535.5" y="-68.8" font-family="Helvetica,Arial,sans-serif" font-weight="bold" font-size="14.00">Page Object Model</text>
</g>
<!-- route_index -->
<g id="node1" class="node">
<title>route_index</title>
<polygon fill="none" stroke="black" points="245,-343 189,-343 189,-307 251,-307 251,-337 245,-343"/>
<polyline fill="none" stroke="black" points="245,-343 245,-337"/>
<polyline fill="none" stroke="black" points="251,-337 245,-337"/>
<text text-anchor="start" x="197" y="-322.3" font-family="Times,serif" font-weight="bold" font-size="14.00">index.js</text>
</g>
<!-- route_profiles -->
<g id="node2" class="node">
<title>route_profiles</title>
<polygon fill="none" stroke="black" points="117,-271 49,-271 49,-235 123,-235 123,-265 117,-271"/>
<polyline fill="none" stroke="black" points="117,-271 117,-265"/>
<polyline fill="none" stroke="black" points="123,-265 117,-265"/>
<text text-anchor="start" x="57" y="-250.3" font-family="Times,serif" font-weight="bold" font-size="14.00">Profiles.js</text>
</g>
<!-- route_index&#45;&gt;route_profiles -->
<g id="edge2" class="edge">
<title>route_index&#45;&gt;route_profiles</title>
<path fill="none" stroke="black" d="M188.54,-308.15C171.71,-299.62 150.67,-288.84 132,-279 130.54,-278.23 129.06,-277.45 127.57,-276.65"/>
<polygon fill="black" stroke="black" points="129.42,-273.67 118.95,-272.03 126.11,-279.84 129.42,-273.67"/>
</g>
<!-- route_search -->
<g id="node3" class="node">
<title>route_search</title>
<polygon fill="none" stroke="black" points="205,-271 141,-271 141,-235 211,-235 211,-265 205,-271"/>
<polyline fill="none" stroke="black" points="205,-271 205,-265"/>
<polyline fill="none" stroke="black" points="211,-265 205,-265"/>
<text text-anchor="start" x="149" y="-250.3" font-family="Times,serif" font-weight="bold" font-size="14.00">Search.js</text>
</g>
<!-- route_index&#45;&gt;route_search -->
<g id="edge4" class="edge">
<title>route_index&#45;&gt;route_search</title>
<path fill="none" stroke="black" d="M209.12,-306.7C204.22,-298.9 198.32,-289.51 192.86,-280.83"/>
<polygon fill="black" stroke="black" points="195.84,-278.99 187.56,-272.39 189.92,-282.71 195.84,-278.99"/>
</g>
<!-- route_details -->
<g id="node4" class="node">
<title>route_details</title>
<polygon fill="none" stroke="black" points="293,-271 229,-271 229,-235 299,-235 299,-265 293,-271"/>
<polyline fill="none" stroke="black" points="293,-271 293,-265"/>
<polyline fill="none" stroke="black" points="299,-265 293,-265"/>
<text text-anchor="start" x="237" y="-250.3" font-family="Times,serif" font-weight="bold" font-size="14.00">Details.js</text>
</g>
<!-- route_index&#45;&gt;route_details -->
<g id="edge3" class="edge">
<title>route_index&#45;&gt;route_details</title>
<path fill="none" stroke="black" d="M230.88,-306.7C235.78,-298.9 241.68,-289.51 247.14,-280.83"/>
<polygon fill="black" stroke="black" points="250.08,-282.71 252.44,-272.39 244.16,-278.99 250.08,-282.71"/>
</g>
<!-- route_browse -->
<g id="node5" class="node">
<title>route_browse</title>
<polygon fill="none" stroke="black" points="384.5,-271 317.5,-271 317.5,-235 390.5,-235 390.5,-265 384.5,-271"/>
<polyline fill="none" stroke="black" points="384.5,-271 384.5,-265"/>
<polyline fill="none" stroke="black" points="390.5,-265 384.5,-265"/>
<text text-anchor="start" x="325.5" y="-250.3" font-family="Times,serif" font-weight="bold" font-size="14.00">Browse.js</text>
</g>
<!-- route_index&#45;&gt;route_browse -->
<g id="edge1" class="edge">
<title>route_index&#45;&gt;route_browse</title>
<path fill="none" stroke="black" d="M251.46,-308.15C268.29,-299.62 289.33,-288.84 308,-279 309.46,-278.23 310.94,-277.45 312.43,-276.65"/>
<polygon fill="black" stroke="black" points="313.89,-279.84 321.05,-272.03 310.58,-273.67 313.89,-279.84"/>
</g>
<!-- component_menu -->
<g id="node6" class="node">
<title>component_menu</title>
<polygon fill="none" stroke="black" points="202.5,-199 143.5,-199 143.5,-163 208.5,-163 208.5,-193 202.5,-199"/>
<polyline fill="none" stroke="black" points="202.5,-199 202.5,-193"/>
<polyline fill="none" stroke="black" points="208.5,-193 202.5,-193"/>
<text text-anchor="start" x="151.5" y="-178.3" font-family="Times,serif" font-weight="bold" font-size="14.00">Menu.js</text>
</g>
<!-- route_profiles&#45;&gt;component_menu -->
<g id="edge7" class="edge">
<title>route_profiles&#45;&gt;component_menu</title>
<path fill="none" stroke="black" d="M108.25,-234.7C119.28,-226.11 132.79,-215.61 144.84,-206.24"/>
<polygon fill="black" stroke="black" points="146.76,-209.18 152.5,-200.28 142.46,-203.65 146.76,-209.18"/>
</g>
<!-- component_image -->
<g id="node11" class="node">
<title>component_image</title>
<polygon fill="none" stroke="black" points="203.5,-52 142.5,-52 142.5,-16 209.5,-16 209.5,-46 203.5,-52"/>
<polyline fill="none" stroke="black" points="203.5,-52 203.5,-46"/>
<polyline fill="none" stroke="black" points="209.5,-46 203.5,-46"/>
<text text-anchor="start" x="150.5" y="-31.3" font-family="Times,serif" font-weight="bold" font-size="14.00">Image.js</text>
</g>
<!-- route_profiles&#45;&gt;component_image -->
<g id="edge8" class="edge">
<title>route_profiles&#45;&gt;component_image</title>
<path fill="none" stroke="black" d="M57.89,-234.64C46.01,-225.63 33.45,-213.46 27,-199 20.48,-184.39 20.81,-177.75 27,-163 47.09,-115.15 95.96,-78.95 132.28,-57.47"/>
<polygon fill="black" stroke="black" points="133.91,-60.56 140.85,-52.55 130.43,-54.49 133.91,-60.56"/>
</g>
<!-- route_search&#45;&gt;component_menu -->
<g id="edge11" class="edge">
<title>route_search&#45;&gt;component_menu</title>
<path fill="none" stroke="black" d="M176,-234.7C176,-227.41 176,-218.73 176,-210.54"/>
<polygon fill="black" stroke="black" points="179.5,-210.62 176,-200.62 172.5,-210.62 179.5,-210.62"/>
</g>
<!-- component_keyboard -->
<g id="node7" class="node">
<title>component_keyboard</title>
<polygon fill="none" stroke="black" points="119.5,-199 36.5,-199 36.5,-163 125.5,-163 125.5,-193 119.5,-199"/>
<polyline fill="none" stroke="black" points="119.5,-199 119.5,-193"/>
<polyline fill="none" stroke="black" points="125.5,-193 119.5,-193"/>
<text text-anchor="start" x="44.5" y="-178.3" font-family="Times,serif" font-weight="bold" font-size="14.00">Keyboard.js</text>
</g>
<!-- route_search&#45;&gt;component_keyboard -->
<g id="edge13" class="edge">
<title>route_search&#45;&gt;component_keyboard</title>
<path fill="none" stroke="black" d="M152.52,-234.7C140.76,-226.03 126.33,-215.4 113.52,-205.96"/>
<polygon fill="black" stroke="black" points="115.89,-203.36 105.76,-200.24 111.74,-208.99 115.89,-203.36"/>
</g>
<!-- component_boxshot -->
<g id="node8" class="node">
<title>component_boxshot</title>
<polygon fill="none" stroke="black" points="297.5,-199 226.5,-199 226.5,-163 303.5,-163 303.5,-193 297.5,-199"/>
<polyline fill="none" stroke="black" points="297.5,-199 297.5,-193"/>
<polyline fill="none" stroke="black" points="303.5,-193 297.5,-193"/>
<text text-anchor="start" x="234.5" y="-178.3" font-family="Times,serif" font-weight="bold" font-size="14.00">Boxshot.js</text>
</g>
<!-- route_search&#45;&gt;component_boxshot -->
<g id="edge12" class="edge">
<title>route_search&#45;&gt;component_boxshot</title>
<path fill="none" stroke="black" d="M198,-234.7C208.91,-226.11 222.27,-215.61 234.18,-206.24"/>
<polygon fill="black" stroke="black" points="236.06,-209.22 241.75,-200.28 231.73,-203.71 236.06,-209.22"/>
</g>
<!-- route_details&#45;&gt;component_menu -->
<g id="edge10" class="edge">
<title>route_details&#45;&gt;component_menu</title>
<path fill="none" stroke="black" d="M242.25,-234.7C231.56,-226.2 218.51,-215.81 206.82,-206.51"/>
<polygon fill="black" stroke="black" points="209,-203.78 198.99,-200.29 204.64,-209.25 209,-203.78"/>
</g>
<!-- component_synopsis -->
<g id="node9" class="node">
<title>component_synopsis</title>
<polygon fill="none" stroke="black" points="396,-199 322,-199 322,-163 402,-163 402,-193 396,-199"/>
<polyline fill="none" stroke="black" points="396,-199 396,-193"/>
<polyline fill="none" stroke="black" points="402,-193 396,-193"/>
<text text-anchor="start" x="330" y="-178.3" font-family="Times,serif" font-weight="bold" font-size="14.00">Synopsis.js</text>
</g>
<!-- route_details&#45;&gt;component_synopsis -->
<g id="edge9" class="edge">
<title>route_details&#45;&gt;component_synopsis</title>
<path fill="none" stroke="black" d="M288.48,-234.52C300.61,-225.85 315.45,-215.25 328.61,-205.85"/>
<polygon fill="black" stroke="black" points="330.5,-208.8 336.6,-200.14 326.43,-203.1 330.5,-208.8"/>
</g>
<!-- route_browse&#45;&gt;component_boxshot -->
<g id="edge6" class="edge">
<title>route_browse&#45;&gt;component_boxshot</title>
<path fill="none" stroke="black" d="M332,-234.7C321.09,-226.11 307.73,-215.61 295.82,-206.24"/>
<polygon fill="black" stroke="black" points="298.27,-203.71 288.25,-200.28 293.94,-209.22 298.27,-203.71"/>
</g>
<!-- route_browse&#45;&gt;component_synopsis -->
<g id="edge5" class="edge">
<title>route_browse&#45;&gt;component_synopsis</title>
<path fill="none" stroke="black" d="M355.98,-234.7C356.81,-227.41 357.8,-218.73 358.74,-210.54"/>
<polygon fill="black" stroke="black" points="362.22,-210.94 359.87,-200.61 355.26,-210.15 362.22,-210.94"/>
</g>
<!-- component_button -->
<g id="node10" class="node">
<title>component_button</title>
<polygon fill="none" stroke="black" points="205,-127 141,-127 141,-91 211,-91 211,-121 205,-127"/>
<polyline fill="none" stroke="black" points="205,-127 205,-121"/>
<polyline fill="none" stroke="black" points="211,-121 205,-121"/>
<text text-anchor="start" x="149" y="-106.3" font-family="Times,serif" font-weight="bold" font-size="14.00">Button.js</text>
</g>
<!-- component_menu&#45;&gt;component_button -->
<g id="edge14" class="edge">
<title>component_menu&#45;&gt;component_button</title>
<path fill="none" stroke="black" d="M176,-162.7C176,-155.41 176,-146.73 176,-138.54"/>
<polygon fill="black" stroke="black" points="179.5,-138.62 176,-128.62 172.5,-138.62 179.5,-138.62"/>
</g>
<!-- component_keyboard&#45;&gt;component_button -->
<g id="edge15" class="edge">
<title>component_keyboard&#45;&gt;component_button</title>
<path fill="none" stroke="black" d="M104.48,-162.7C116.24,-154.03 130.67,-143.4 143.48,-133.96"/>
<polygon fill="black" stroke="black" points="145.26,-136.99 151.24,-128.24 141.11,-131.36 145.26,-136.99"/>
</g>
<!-- component_boxshot&#45;&gt;component_image -->
<g id="edge16" class="edge">
<title>component_boxshot&#45;&gt;component_image</title>
<path fill="none" stroke="black" d="M262.33,-162.61C257.68,-137.41 246,-90.47 220,-60 219.44,-59.35 218.87,-58.71 218.27,-58.09"/>
<polygon fill="black" stroke="black" points="220.67,-55.53 210.79,-51.69 216.12,-60.85 220.67,-55.53"/>
</g>
<!-- component_text -->
<g id="node12" class="node">
<title>component_text</title>
<polygon fill="none" stroke="black" points="286,-52 236,-52 236,-16 292,-16 292,-46 286,-52"/>
<polyline fill="none" stroke="black" points="286,-52 286,-46"/>
<polyline fill="none" stroke="black" points="292,-46 286,-46"/>
<text text-anchor="start" x="244" y="-31.3" font-family="Times,serif" font-weight="bold" font-size="14.00">Text.js</text>
</g>
<!-- component_synopsis&#45;&gt;component_text -->
<g id="edge17" class="edge">
<title>component_synopsis&#45;&gt;component_text</title>
<path fill="none" stroke="black" d="M350.18,-162.51C333.16,-137.34 301.64,-90.69 281.8,-61.34"/>
<polygon fill="black" stroke="black" points="284.91,-59.68 276.41,-53.36 279.11,-63.6 284.91,-59.68"/>
</g>
<!-- component_button&#45;&gt;component_image -->
<g id="edge18" class="edge">
<title>component_button&#45;&gt;component_image</title>
<path fill="none" stroke="black" d="M176,-90.7C176,-82.67 176,-72.9 176,-63.8"/>
<polygon fill="black" stroke="black" points="179.5,-63.94 176,-53.94 172.5,-63.94 179.5,-63.94"/>
</g>
<!-- component_button&#45;&gt;component_text -->
<g id="edge19" class="edge">
<title>component_button&#45;&gt;component_text</title>
<path fill="none" stroke="black" d="M196.85,-90.7C208.06,-81.4 222.07,-69.78 234.38,-59.57"/>
<polygon fill="black" stroke="black" points="236.36,-62.47 241.83,-53.4 231.89,-57.09 236.36,-62.47"/>
</g>
<!-- test_browse -->
<g id="node13" class="node">
<title>test_browse</title>
<polygon fill="none" stroke="black" points="1207.5,-343 1118.5,-343 1118.5,-307 1213.5,-307 1213.5,-337 1207.5,-343"/>
<polyline fill="none" stroke="black" points="1207.5,-343 1207.5,-337"/>
<polyline fill="none" stroke="black" points="1213.5,-337 1207.5,-337"/>
<text text-anchor="start" x="1126.5" y="-322.3" font-family="Times,serif" font-weight="bold" font-size="14.00">browse.test.js</text>
</g>
<!-- test_button -->
<g id="node14" class="node">
<title>test_button</title>
<polygon fill="none" stroke="black" points="1094,-343 1008,-343 1008,-307 1100,-307 1100,-337 1094,-343"/>
<polyline fill="none" stroke="black" points="1094,-343 1094,-337"/>
<polyline fill="none" stroke="black" points="1100,-337 1094,-337"/>
<text text-anchor="start" x="1016" y="-322.3" font-family="Times,serif" font-weight="bold" font-size="14.00">button.test.js</text>
</g>
<!-- test_keyboard -->
<g id="node15" class="node">
<title>test_keyboard</title>
<polygon fill="none" stroke="black" points="983.5,-343 880.5,-343 880.5,-307 989.5,-307 989.5,-337 983.5,-343"/>
<polyline fill="none" stroke="black" points="983.5,-343 983.5,-337"/>
<polyline fill="none" stroke="black" points="989.5,-337 983.5,-337"/>
<text text-anchor="start" x="888.5" y="-322.3" font-family="Times,serif" font-weight="bold" font-size="14.00">keyboard.test.js</text>
</g>
<!-- test_details -->
<g id="node16" class="node">
<title>test_details</title>
<polygon fill="none" stroke="black" points="856,-343 770,-343 770,-307 862,-307 862,-337 856,-343"/>
<polyline fill="none" stroke="black" points="856,-343 856,-337"/>
<polyline fill="none" stroke="black" points="862,-337 856,-337"/>
<text text-anchor="start" x="778" y="-322.3" font-family="Times,serif" font-weight="bold" font-size="14.00">details.test.js</text>
</g>
<!-- test_search -->
<g id="node17" class="node">
<title>test_search</title>
<polygon fill="none" stroke="black" points="746,-343 660,-343 660,-307 752,-307 752,-337 746,-343"/>
<polyline fill="none" stroke="black" points="746,-343 746,-337"/>
<polyline fill="none" stroke="black" points="752,-337 746,-337"/>
<text text-anchor="start" x="668" y="-322.3" font-family="Times,serif" font-weight="bold" font-size="14.00">search.test.js</text>
</g>
<!-- test_smoke -->
<g id="node18" class="node">
<title>test_smoke</title>
<polygon fill="none" stroke="black" points="636,-343 550,-343 550,-307 642,-307 642,-337 636,-343"/>
<polyline fill="none" stroke="black" points="636,-343 636,-337"/>
<polyline fill="none" stroke="black" points="642,-337 636,-337"/>
<text text-anchor="start" x="558" y="-322.3" font-family="Times,serif" font-weight="bold" font-size="14.00">smoke.test.js</text>
</g>
<!-- pom_index -->
<g id="node19" class="node">
<title>pom_index</title>
<polygon fill="none" stroke="black" points="621,-271 565,-271 565,-235 627,-235 627,-265 621,-271"/>
<polyline fill="none" stroke="black" points="621,-271 621,-265"/>
<polyline fill="none" stroke="black" points="627,-265 621,-265"/>
<text text-anchor="start" x="573" y="-250.3" font-family="Times,serif" font-weight="bold" font-size="14.00">index.js</text>
</g>
<!-- test_smoke&#45;&gt;pom_index -->
<g id="edge20" class="edge">
<title>test_smoke&#45;&gt;pom_index</title>
<path fill="none" stroke="black" d="M596,-306.7C596,-299.41 596,-290.73 596,-282.54"/>
<polygon fill="black" stroke="black" points="599.5,-282.62 596,-272.62 592.5,-282.62 599.5,-282.62"/>
</g>
<!-- pom_search -->
<g id="node20" class="node">
<title>pom_search</title>
<polygon fill="none" stroke="black" points="670,-199 606,-199 606,-163 676,-163 676,-193 670,-199"/>
<polyline fill="none" stroke="black" points="670,-199 670,-193"/>
<polyline fill="none" stroke="black" points="676,-193 670,-193"/>
<text text-anchor="start" x="614" y="-178.3" font-family="Times,serif" font-weight="bold" font-size="14.00">Search.js</text>
</g>
<!-- pom_index&#45;&gt;pom_search -->
<g id="edge21" class="edge">
<title>pom_index&#45;&gt;pom_search</title>
<path fill="none" stroke="black" d="M607.12,-234.7C612.19,-226.81 618.3,-217.3 623.93,-208.55"/>
<polygon fill="black" stroke="black" points="626.72,-210.68 629.19,-200.38 620.83,-206.9 626.72,-210.68"/>
</g>
<!-- pom_profiles -->
<g id="node21" class="node">
<title>pom_profiles</title>
<polygon fill="none" stroke="black" points="762,-199 694,-199 694,-163 768,-163 768,-193 762,-199"/>
<polyline fill="none" stroke="black" points="762,-199 762,-193"/>
<polyline fill="none" stroke="black" points="768,-193 762,-193"/>
<text text-anchor="start" x="702" y="-178.3" font-family="Times,serif" font-weight="bold" font-size="14.00">Profiles.js</text>
</g>
<!-- pom_index&#45;&gt;pom_profiles -->
<g id="edge22" class="edge">
<title>pom_index&#45;&gt;pom_profiles</title>
<path fill="none" stroke="black" d="M627.31,-235.76C645.14,-226.52 667.75,-214.8 687.3,-204.66"/>
<polygon fill="black" stroke="black" points="688.89,-207.78 696.16,-200.07 685.67,-201.56 688.89,-207.78"/>
</g>
<!-- pom_details -->
<g id="node22" class="node">
<title>pom_details</title>
<polygon fill="none" stroke="black" points="490,-199 426,-199 426,-163 496,-163 496,-193 490,-199"/>
<polyline fill="none" stroke="black" points="490,-199 490,-193"/>
<polyline fill="none" stroke="black" points="496,-193 490,-193"/>
<text text-anchor="start" x="434" y="-178.3" font-family="Times,serif" font-weight="bold" font-size="14.00">Details.js</text>
</g>
<!-- pom_index&#45;&gt;pom_details -->
<g id="edge23" class="edge">
<title>pom_index&#45;&gt;pom_details</title>
<path fill="none" stroke="black" d="M564.69,-235.76C546.86,-226.52 524.25,-214.8 504.7,-204.66"/>
<polygon fill="black" stroke="black" points="506.33,-201.56 495.84,-200.07 503.11,-207.78 506.33,-201.56"/>
</g>
<!-- pom_browse -->
<g id="node23" class="node">
<title>pom_browse</title>
<polygon fill="none" stroke="black" points="581.5,-199 514.5,-199 514.5,-163 587.5,-163 587.5,-193 581.5,-199"/>
<polyline fill="none" stroke="black" points="581.5,-199 581.5,-193"/>
<polyline fill="none" stroke="black" points="587.5,-193 581.5,-193"/>
<text text-anchor="start" x="522.5" y="-178.3" font-family="Times,serif" font-weight="bold" font-size="14.00">Browse.js</text>
</g>
<!-- pom_index&#45;&gt;pom_browse -->
<g id="edge24" class="edge">
<title>pom_index&#45;&gt;pom_browse</title>
<path fill="none" stroke="black" d="M584.88,-234.7C579.81,-226.81 573.7,-217.3 568.07,-208.55"/>
<polygon fill="black" stroke="black" points="571.17,-206.9 562.81,-200.38 565.28,-210.68 571.17,-206.9"/>
</g>
<!-- pom_keyboard -->
<g id="node24" class="node">
<title>pom_keyboard</title>
<polygon fill="none" stroke="black" points="679.5,-127 596.5,-127 596.5,-91 685.5,-91 685.5,-121 679.5,-127"/>
<polyline fill="none" stroke="black" points="679.5,-127 679.5,-121"/>
<polyline fill="none" stroke="black" points="685.5,-121 679.5,-121"/>
<text text-anchor="start" x="604.5" y="-106.3" font-family="Times,serif" font-weight="bold" font-size="14.00">Keyboard.js</text>
</g>
<!-- pom_search&#45;&gt;pom_keyboard -->
<g id="edge25" class="edge">
<title>pom_search&#45;&gt;pom_keyboard</title>
<path fill="none" stroke="black" d="M641,-162.7C641,-155.41 641,-146.73 641,-138.54"/>
<polygon fill="black" stroke="black" points="644.5,-138.62 641,-128.62 637.5,-138.62 644.5,-138.62"/>
</g>
</g>
</svg>
