<?xml version="1.0" standalone="no"?>
<svg xmlns="http://www.w3.org/2000/svg" xmlns:xlink="http://www.w3.org/1999/xlink" width="1651pt" height="450pt" viewBox="0.00 0.00 1651 449.6">
<g id="graph0" class="graph" transform="translate(4,445.6000061035156) scale(1)" data-name="G">

<polygon fill="white" stroke="none" points="-4,4 -4,-445.6 1647,-445.6 1647,4 -4,4"/>
<g id="clust1" class="cluster" data-name="routes">

<path fill="none" stroke="black" d="M20,-8C20,-8 563,-8 563,-8 569,-8 575,-14 575,-20 575,-20 575,-414.6 575,-414.6 575,-420.6 569,-426.6 563,-426.6 563,-426.6 20,-426.6 20,-426.6 14,-426.6 8,-420.6 8,-414.6 8,-414.6 8,-20 8,-20 8,-14 14,-8 20,-8"/>
<text text-anchor="start" x="256.49" y="-411" font-family="Helvetica,Arial,sans-serif" font-weight="bold" font-size="14.00">Application</text>
</g>
<g id="clust2" class="cluster" data-name="tests">

<path fill="none" stroke="black" d="M822,-342.8C822,-342.8 1623,-342.8 1623,-342.8 1629,-342.8 1635,-348.8 1635,-354.8 1635,-354.8 1635,-421.6 1635,-421.6 1635,-427.6 1629,-433.6 1623,-433.6 1623,-433.6 822,-433.6 822,-433.6 816,-433.6 810,-427.6 810,-421.6 810,-421.6 810,-354.8 810,-354.8 810,-348.8 816,-342.8 822,-342.8"/>
<text text-anchor="start" x="1172.91" y="-418" font-family="Helvetica,Arial,sans-serif" font-weight="bold" font-size="14.00">Functional Tests</text>
</g>
<g id="clust3" class="cluster" data-name="page_object_model">

<path fill="none" stroke="black" d="M595,-60C595,-60 1138,-60 1138,-60 1144,-60 1150,-66 1150,-72 1150,-72 1150,-303.8 1150,-303.8 1150,-309.8 1144,-315.8 1138,-315.8 1138,-315.8 595,-315.8 595,-315.8 589,-315.8 583,-309.8 583,-303.8 583,-303.8 583,-72 583,-72 583,-66 589,-60 595,-60"/>
<text text-anchor="start" x="809.35" y="-69.2" font-family="Helvetica,Arial,sans-serif" font-weight="bold" font-size="14.00">Page Object Model</text>
</g>
<!-- route_index -->
<g id="node1" class="node" pointer-events="visible" data-name="route_index">

<polygon fill="none" stroke="black" points="317.29,-393.8 260.71,-393.8 260.71,-357.8 323.29,-357.8 323.29,-387.8 317.29,-393.8"/>
<polyline fill="none" stroke="black" points="317.29,-393.8 317.29,-387.8"/>
<polyline fill="none" stroke="black" points="323.29,-387.8 317.29,-387.8"/>
<text text-anchor="start" x="268.86" y="-372.6" font-family="Times,serif" font-weight="bold" font-size="14.00">index.js</text>
</g>
<!-- route_profile_gate -->
<g id="node2" class="node" pointer-events="visible" data-name="route_profiles" data-comment="route_profile_gate">

<polygon fill="none" stroke="black" points="138.04,-314.8 15.96,-314.8 15.96,-264.8 144.04,-264.8 144.04,-308.8 138.04,-314.8"/>
<polyline fill="none" stroke="black" points="138.04,-314.8 138.04,-308.8"/>
<polyline fill="none" stroke="black" points="144.04,-308.8 138.04,-308.8"/>
<text text-anchor="start" x="50.26" y="-299.2" font-family="Times,serif" font-weight="bold" font-size="14.00">Profiles.js</text>
<text text-anchor="start" x="23.98" y="-271.2" font-family="Times,serif" font-size="14.00">/** @tag profiles */</text>
</g>
<!-- route_index&#45;&gt;route_profile_gate -->
<g id="edge2" class="edge" data-name="route_index-&gt;route_profiles" data-comment="route_index-&gt;route_profile_gate">

<path fill="none" stroke="green" d="M249.81,-358.08C218.8,-345.8 176.19,-328.91 141.41,-315.13"/>
<polygon fill="green" stroke="green" points="248.27,-361.24 258.85,-361.67 250.85,-354.73 248.27,-361.24"/>
</g>
<!-- route_search -->
<g id="node3" class="node" pointer-events="visible" data-name="route_search">

<polygon fill="none" stroke="black" points="277.53,-314.8 162.47,-314.8 162.47,-264.8 283.53,-264.8 283.53,-308.8 277.53,-314.8"/>
<polyline fill="none" stroke="black" points="277.53,-314.8 277.53,-308.8"/>
<polyline fill="none" stroke="black" points="283.53,-308.8 277.53,-308.8"/>
<text text-anchor="start" x="195.59" y="-299.2" font-family="Times,serif" font-weight="bold" font-size="14.00">Search.js</text>
<text text-anchor="start" x="170.49" y="-271.2" font-family="Times,serif" font-size="14.00">/** @tag search */</text>
</g>
<!-- route_index&#45;&gt;route_search -->
<g id="edge4" class="edge" data-name="route_index-&gt;route_search">

<path fill="none" stroke="rgb(0, 128, 0)" d="M270.42,-348.52C261.67,-337.87 251.62,-325.64 243.03,-315.19"/>
<polygon fill="green" stroke="green" points="267.69,-350.72 276.74,-356.23 273.1,-346.28 267.69,-350.72"/>
</g>
<!-- route_mdp -->
<g id="node4" class="node" pointer-events="visible" data-name="route_details" data-comment="route_mdp">

<polygon fill="none" stroke="black" points="416.82,-314.8 301.18,-314.8 301.18,-264.8 422.82,-264.8 422.82,-308.8 416.82,-314.8"/>
<polyline fill="none" stroke="black" points="416.82,-314.8 416.82,-308.8"/>
<polyline fill="none" stroke="black" points="422.82,-308.8 416.82,-308.8"/>
<text text-anchor="start" x="334.59" y="-299.2" font-family="Times,serif" font-weight="bold" font-size="14.00">Details.js</text>
<text text-anchor="start" x="309.09" y="-271.2" font-family="Times,serif" font-size="14.00">/** @tag details */</text>
</g>
<!-- route_index&#45;&gt;route_mdp -->
<g id="edge3" class="edge" data-name="route_index-&gt;route_details" data-comment="route_index-&gt;route_mdp">

<path fill="none" stroke="green" d="M313.63,-348.85C322.57,-338.12 332.88,-325.75 341.68,-315.19"/>
<polygon fill="green" stroke="green" points="311.19,-346.31 307.47,-356.23 316.56,-350.79 311.19,-346.31"/>
</g>
<!-- route_browse -->
<g id="node5" class="node" pointer-events="visible" data-name="route_browse">

<polygon fill="none" stroke="black" points="560.71,-314.8 441.29,-314.8 441.29,-264.8 566.71,-264.8 566.71,-308.8 560.71,-314.8"/>
<polyline fill="none" stroke="black" points="560.71,-314.8 560.71,-308.8"/>
<polyline fill="none" stroke="black" points="566.71,-308.8 560.71,-308.8"/>
<text text-anchor="start" x="475.03" y="-299.2" font-family="Times,serif" font-weight="bold" font-size="14.00">Browse.js</text>
<text text-anchor="start" x="449.15" y="-271.2" font-family="Times,serif" font-size="14.00">/** @tag browse */</text>
</g>
<!-- route_index&#45;&gt;route_browse -->
<g id="edge1" class="edge" data-name="route_index-&gt;route_browse">

<path fill="none" stroke="black" d="M334.19,-358.08C365.2,-345.8 407.81,-328.91 442.59,-315.13"/>
<polygon fill="black" stroke="black" points="333.15,-354.73 325.15,-361.67 335.73,-361.24 333.15,-354.73"/>
</g>
<!-- component_menu -->
<g id="node6" class="node" pointer-events="visible" data-name="component_menu">

<polygon fill="none" stroke="black" points="313.11,-221.8 254.89,-221.8 254.89,-185.8 319.11,-185.8 319.11,-215.8 313.11,-221.8"/>
<polyline fill="none" stroke="black" points="313.11,-221.8 313.11,-215.8"/>
<polyline fill="none" stroke="black" points="319.11,-215.8 313.11,-215.8"/>
<text text-anchor="start" x="262.69" y="-200.6" font-family="Times,serif" font-weight="bold" font-size="14.00">Menu.js</text>
</g>
<!-- route_profile_gate&#45;&gt;component_menu -->
<g id="edge7" class="edge" data-name="route_profiles-&gt;component_menu" data-comment="route_profile_gate-&gt;component_menu">

<path fill="none" stroke="green" d="M154.95,-263.2C190.6,-250.72 229.08,-236.73 246,-228.8 250.18,-226.84 254.5,-224.59 258.69,-222.27"/>
<polygon fill="green" stroke="green" points="154.22,-259.75 145.93,-266.35 156.53,-266.36 154.22,-259.75"/>
</g>
<!-- component_image -->
<g id="node11" class="node" pointer-events="visible" data-name="component_image">

<polygon fill="none" stroke="black" points="314.43,-52 253.57,-52 253.57,-16 320.43,-16 320.43,-46 314.43,-52"/>
<polyline fill="none" stroke="black" points="314.43,-52 314.43,-46"/>
<polyline fill="none" stroke="black" points="320.43,-46 314.43,-46"/>
<text text-anchor="start" x="261.53" y="-30.8" font-family="Times,serif" font-weight="bold" font-size="14.00">Image.js</text>
</g>
<!-- route_profile_gate&#45;&gt;component_image -->
<g id="edge8" class="edge" data-name="route_profiles-&gt;component_image" data-comment="route_profile_gate-&gt;component_image">

<path fill="none" stroke="black" d="M76.95,-252.93C76.53,-230.54 78.79,-201.73 90,-178.8 123.95,-109.36 151.01,-100.24 217,-60 228.13,-53.21 241.37,-47.89 253.33,-43.93"/>
<polygon fill="black" stroke="black" points="73.45,-252.94 77.34,-262.79 80.44,-252.66 73.45,-252.94"/>
</g>
<!-- route_search&#45;&gt;component_menu -->
<g id="edge11" class="edge" data-name="route_search-&gt;component_menu">

<path fill="none" stroke="rgb(0, 128, 0)" d="M248.31,-255.58C257.03,-244.13 266.45,-231.77 273.81,-222.11"/>
<polygon fill="green" stroke="green" points="245.71,-253.22 242.43,-263.3 251.27,-257.47 245.71,-253.22"/>
</g>
<!-- component_keyboard -->
<g id="node7" class="node" pointer-events="visible" data-name="component_keyboard">

<polygon fill="none" stroke="black" points="230.87,-228.8 99.13,-228.8 99.13,-178.8 236.87,-178.8 236.87,-222.8 230.87,-228.8"/>
<polyline fill="none" stroke="rgb(0, 0, 0)" points="230.87,-228.8 230.87,-222.8"/>
<polyline fill="none" stroke="rgb(0, 0, 0)" points="236.87,-222.8 230.87,-222.8"/>
<text text-anchor="start" x="131.25" y="-213.2" font-family="Times,serif" font-weight="bold" font-size="14.00">Keyboard.js</text>
<text text-anchor="start" x="107.32" y="-185.2" font-family="Times,serif" font-size="14.00">/** @tag keyboard */</text>
</g>
<!-- route_search&#45;&gt;component_keyboard -->
<g id="edge13" class="edge" data-name="route_search-&gt;component_keyboard">

<path fill="none" stroke="rgb(0, 128, 0)" d="M200.86,-254.99C195.18,-246.3 189.17,-237.13 183.87,-229.04"/>
<polygon fill="green" stroke="green" points="197.86,-256.79 206.26,-263.24 203.71,-252.95 197.86,-256.79"/>
</g>
<!-- component_boxshot -->
<g id="node8" class="node" pointer-events="visible" data-name="component_boxshot">

<polygon fill="none" stroke="black" points="408.84,-221.8 337.16,-221.8 337.16,-185.8 414.84,-185.8 414.84,-215.8 408.84,-221.8"/>
<polyline fill="none" stroke="black" points="408.84,-221.8 408.84,-215.8"/>
<polyline fill="none" stroke="black" points="414.84,-215.8 408.84,-215.8"/>
<text text-anchor="start" x="345.08" y="-200.6" font-family="Times,serif" font-weight="bold" font-size="14.00">Boxshot.js</text>
</g>
<!-- route_search&#45;&gt;component_boxshot -->
<g id="edge12" class="edge" data-name="route_search-&gt;component_boxshot">

<path fill="none" stroke="black" d="M277.06,-259.12C299.62,-246.73 325.05,-232.77 344.47,-222.11"/>
<polygon fill="black" stroke="black" points="275.66,-255.89 268.58,-263.78 279.03,-262.03 275.66,-255.89"/>
</g>
<!-- route_mdp&#45;&gt;component_menu -->
<g id="edge10" class="edge" data-name="route_details-&gt;component_menu" data-comment="route_mdp-&gt;component_menu">

<path fill="none" stroke="green" d="M332.65,-255.92C322.34,-244.38 311.17,-231.87 302.45,-222.11"/>
<polygon fill="green" stroke="green" points="330.03,-258.25 339.3,-263.37 335.25,-253.58 330.03,-258.25"/>
</g>
<!-- component_bob -->
<g id="node9" class="node" pointer-events="visible" data-name="component_synopsis" data-comment="component_bob">

<polygon fill="none" stroke="black" points="508.76,-221.8 433.24,-221.8 433.24,-185.8 514.76,-185.8 514.76,-215.8 508.76,-221.8" style=""/>
<polyline fill="none" stroke="black" points="508.76,-221.8 508.76,-215.8" style=""/>
<polyline fill="none" stroke="black" points="514.76,-215.8 508.76,-215.8" style=""/>
<text text-anchor="start" x="441.12" y="-200.6" font-family="Times,serif" font-weight="bold" font-size="14.00" style="">Synopsis.js</text>
</g>
<!-- route_mdp&#45;&gt;component_bob -->
<g id="edge9" class="edge" data-name="route_details-&gt;component_synopsis" data-comment="route_mdp-&gt;component_bob">

<path fill="none" stroke="black" d="M403.58,-257.62C419.58,-245.61 437.27,-232.34 450.92,-222.11"/>
<polygon fill="black" stroke="black" points="401.51,-254.8 395.61,-263.6 405.71,-260.4 401.51,-254.8"/>
</g>
<!-- route_browse&#45;&gt;component_boxshot -->
<g id="edge6" class="edge" data-name="route_browse-&gt;component_boxshot">

<path fill="none" stroke="black" d="M457.5,-258.29C438.95,-246.11 418.26,-232.54 402.38,-222.11"/>
<polygon fill="black" stroke="black" points="455.43,-261.11 465.71,-263.67 459.27,-255.26 455.43,-261.11"/>
</g>
<!-- route_browse&#45;&gt;component_bob -->
<g id="edge5" class="edge" data-name="route_browse-&gt;component_synopsis" data-comment="route_browse-&gt;component_bob">

<path fill="none" stroke="black" d="M491.53,-253.88C487.61,-242.92 483.46,-231.29 480.18,-222.11"/>
<polygon fill="black" stroke="black" points="488.15,-254.84 494.81,-263.08 494.75,-252.48 488.15,-254.84"/>
</g>
<!-- component_button -->
<g id="node10" class="node" pointer-events="visible" data-name="component_button">

<polygon fill="orange" stroke="black" points="341.55,-142.8 226.45,-142.8 226.45,-92.8 347.55,-92.8 347.55,-136.8 341.55,-142.8"/>
<polyline fill="none" stroke="black" points="341.55,-142.8 341.55,-136.8"/>
<polyline fill="none" stroke="black" points="347.55,-136.8 341.55,-136.8"/>
<text text-anchor="start" x="259.58" y="-127.2" font-family="Times,serif" font-weight="bold" font-size="14.00">Button.js</text>
<text text-anchor="start" x="234.47" y="-99.2" font-family="Times,serif" font-size="14.00">/** @tag button */</text>
</g>
<!-- component_menu&#45;&gt;component_button -->
<g id="edge14" class="edge" data-name="component_menu-&gt;component_button">

<path fill="none" stroke="rgb(0, 128, 0)" d="M287,-173.91C287,-163.91 287,-152.8 287,-143.19"/>
<polygon fill="green" stroke="green" points="283.5,-173.88 287,-183.88 290.5,-173.88 283.5,-173.88"/>
</g>
<!-- component_keyboard&#45;&gt;component_button -->
<g id="edge15" class="edge" data-name="component_keyboard-&gt;component_button">

<path fill="none" stroke="rgb(0, 128, 0)" d="M211.57,-172.05C225.11,-162.49 239.84,-152.09 252.66,-143.04"/>
<polygon fill="green" stroke="green" points="209.81,-169 203.66,-177.63 213.84,-174.72 209.81,-169"/>
</g>
<!-- component_boxshot&#45;&gt;component_image -->
<g id="edge16" class="edge" data-name="component_boxshot-&gt;component_image">

<path fill="none" stroke="black" d="M380.25,-174.63C383.35,-143.17 383.22,-92.42 357,-60 348.07,-48.96 333.89,-42.79 320.62,-39.35"/>
<polygon fill="black" stroke="black" points="376.82,-173.82 379.13,-184.16 383.77,-174.64 376.82,-173.82"/>
</g>
<!-- component_text -->
<g id="node12" class="node" pointer-events="visible" data-name="component_text">

<polygon fill="none" stroke="black" points="421.32,-52 370.68,-52 370.68,-16 427.32,-16 427.32,-46 421.32,-52"/>
<polyline fill="none" stroke="black" points="421.32,-52 421.32,-46"/>
<polyline fill="none" stroke="black" points="427.32,-46 421.32,-46"/>
<text text-anchor="start" x="378.59" y="-30.8" font-family="Times,serif" font-weight="bold" font-size="14.00">Text.js</text>
</g>
<!-- component_bob&#45;&gt;component_text -->
<g id="edge17" class="edge" data-name="component_synopsis-&gt;component_text" data-comment="component_bob-&gt;component_text">

<path fill="none" stroke="black" d="M461.61,-175.08C446.05,-140.27 419.83,-81.6 406.81,-52.48" style=""/>
<polygon fill="black" stroke="black" points="458.36,-176.39 465.64,-184.09 464.75,-173.53 458.36,-176.39" style=""/>
</g>
<!-- component_button&#45;&gt;component_image -->
<g id="edge18" class="edge" data-name="component_button-&gt;component_image">

<path fill="none" stroke="black" d="M287,-81.31C287,-71.31 287,-60.87 287,-52.44"/>
<polygon fill="black" stroke="black" points="283.5,-81.19 287,-91.19 290.5,-81.19 283.5,-81.19"/>
</g>
<!-- component_button&#45;&gt;component_text -->
<g id="edge19" class="edge" data-name="component_button-&gt;component_text">

<path fill="none" stroke="black" d="M329.25,-85.94C344.81,-74.58 361.89,-62.11 375.25,-52.35"/>
<polygon fill="black" stroke="black" points="327.53,-82.86 321.52,-91.59 331.66,-88.51 327.53,-82.86"/>
</g>
<!-- test_browse -->
<g id="node13" class="node" pointer-events="visible" data-name="test_browse">

<polygon fill="none" stroke="black" points="1620.71,-400.8 1501.29,-400.8 1501.29,-350.8 1626.71,-350.8 1626.71,-394.8 1620.71,-400.8"/>
<polyline fill="none" stroke="black" points="1620.71,-400.8 1620.71,-394.8"/>
<polyline fill="none" stroke="black" points="1626.71,-394.8 1620.71,-394.8"/>
<text text-anchor="start" x="1523.57" y="-385.2" font-family="Times,serif" font-weight="bold" font-size="14.00">browse.test.js</text>
<text text-anchor="start" x="1509.15" y="-357.2" font-family="Times,serif" font-size="14.00">/** @tag browse */</text>
</g>
<!-- test_button -->
<g id="node14" class="node" pointer-events="visible" data-name="test_button">

<polygon fill="none" stroke="black" points="1477.55,-400.8 1362.45,-400.8 1362.45,-350.8 1483.55,-350.8 1483.55,-394.8 1477.55,-400.8"/>
<polyline fill="none" stroke="black" points="1477.55,-400.8 1477.55,-394.8"/>
<polyline fill="none" stroke="black" points="1483.55,-394.8 1477.55,-394.8"/>
<text text-anchor="start" x="1384.11" y="-385.2" font-family="Times,serif" font-weight="bold" font-size="14.00">button.test.js</text>
<text text-anchor="start" x="1370.47" y="-357.2" font-family="Times,serif" font-size="14.00">/** @tag button */</text>
</g>
<!-- test_keyboard -->
<g id="node15" class="node" pointer-events="visible" data-name="test_keyboard">

<polygon fill="none" stroke="black" points="1338.87,-400.8 1207.13,-400.8 1207.13,-350.8 1344.87,-350.8 1344.87,-394.8 1338.87,-400.8"/>
<polyline fill="none" stroke="black" points="1338.87,-400.8 1338.87,-394.8"/>
<polyline fill="none" stroke="black" points="1344.87,-394.8 1338.87,-394.8"/>
<text text-anchor="start" x="1228.56" y="-385.2" font-family="Times,serif" font-weight="bold" font-size="14.00">keyboard.test.js</text>
<text text-anchor="start" x="1215.32" y="-357.2" font-family="Times,serif" font-size="14.00">/** @tag keyboard */</text>
</g>
<!-- test_mdp -->
<g id="node16" class="node" pointer-events="visible" data-name="test_details" data-comment="test_mdp">

<polygon fill="none" stroke="black" points="1182.82,-400.8 1067.18,-400.8 1067.18,-350.8 1188.82,-350.8 1188.82,-394.8 1182.82,-400.8"/>
<polyline fill="none" stroke="black" points="1182.82,-400.8 1182.82,-394.8"/>
<polyline fill="none" stroke="black" points="1188.82,-394.8 1182.82,-394.8"/>
<text text-anchor="start" x="1089.51" y="-385.2" font-family="Times,serif" font-weight="bold" font-size="14.00">details.test.js</text>
<text text-anchor="start" x="1075.09" y="-357.2" font-family="Times,serif" font-size="14.00">/** @tag details */</text>
</g>
<!-- test_search -->
<g id="node17" class="node" pointer-events="visible" data-name="test_search">

<polygon fill="none" stroke="black" points="1043.53,-400.8 928.47,-400.8 928.47,-350.8 1049.53,-350.8 1049.53,-394.8 1043.53,-400.8"/>
<polyline fill="none" stroke="black" points="1043.53,-400.8 1043.53,-394.8"/>
<polyline fill="none" stroke="black" points="1049.53,-394.8 1043.53,-394.8"/>
<text text-anchor="start" x="950.51" y="-385.2" font-family="Times,serif" font-weight="bold" font-size="14.00">search.test.js</text>
<text text-anchor="start" x="936.49" y="-357.2" font-family="Times,serif" font-size="14.00">/** @tag search */</text>
</g>
<!-- test_smoke -->
<g id="node18" class="node" pointer-events="visible" data-name="test_smoke">

<polygon fill="none" stroke="black" points="904.21,-393.8 817.79,-393.8 817.79,-357.8 910.21,-357.8 910.21,-387.8 904.21,-393.8"/>
<polyline fill="none" stroke="black" points="904.21,-393.8 904.21,-387.8"/>
<polyline fill="none" stroke="black" points="910.21,-387.8 904.21,-387.8"/>
<text text-anchor="start" x="825.9" y="-372.6" font-family="Times,serif" font-weight="bold" font-size="14.00">smoke.test.js</text>
</g>
<!-- pom_index -->
<g id="node19" class="node" pointer-events="visible" data-name="pom_index">

<polygon fill="none" stroke="black" points="889.29,-307.8 832.71,-307.8 832.71,-271.8 895.29,-271.8 895.29,-301.8 889.29,-307.8"/>
<polyline fill="none" stroke="black" points="889.29,-307.8 889.29,-301.8"/>
<polyline fill="none" stroke="black" points="895.29,-301.8 889.29,-301.8"/>
<text text-anchor="start" x="840.86" y="-286.6" font-family="Times,serif" font-weight="bold" font-size="14.00">index.js</text>
</g>
<!-- test_smoke&#45;&gt;pom_index -->
<g id="edge20" class="edge" data-name="test_smoke-&gt;pom_index">

<path fill="none" stroke="rgb(0, 128, 0)" d="M864,-357.4C864,-346.47 864,-332.12 864,-319.53"/>
<polygon fill="green" stroke="green" points="867.5,-319.7 864,-309.7 860.5,-319.7 867.5,-319.7"/>
</g>
<!-- pom_search -->
<g id="node20" class="node" pointer-events="visible" data-name="pom_search">

<polygon fill="none" stroke="black" points="989.53,-228.8 874.47,-228.8 874.47,-178.8 995.53,-178.8 995.53,-222.8 989.53,-228.8"/>
<polyline fill="none" stroke="black" points="989.53,-228.8 989.53,-222.8"/>
<polyline fill="none" stroke="black" points="995.53,-222.8 989.53,-222.8"/>
<text text-anchor="start" x="907.59" y="-213.2" font-family="Times,serif" font-weight="bold" font-size="14.00">Search.js</text>
<text text-anchor="start" x="882.49" y="-185.2" font-family="Times,serif" font-size="14.00">/** @tag search */</text>
</g>
<!-- pom_index&#45;&gt;pom_search -->
<g id="edge21" class="edge" data-name="pom_index-&gt;pom_search">

<path fill="none" stroke="rgb(0, 128, 0)" d="M878.71,-271.4C886.93,-261.67 897.45,-249.22 907.16,-237.73"/>
<polygon fill="green" stroke="green" points="909.63,-240.24 913.41,-230.35 904.28,-235.72 909.63,-240.24"/>
</g>
<!-- pom_profile_gate -->
<g id="node21" class="node" pointer-events="visible" data-name="pom_profiles" data-comment="pom_profile_gate">

<polygon fill="none" stroke="black" points="1136.04,-228.8 1013.96,-228.8 1013.96,-178.8 1142.04,-178.8 1142.04,-222.8 1136.04,-228.8"/>
<polyline fill="none" stroke="black" points="1136.04,-228.8 1136.04,-222.8"/>
<polyline fill="none" stroke="black" points="1142.04,-222.8 1136.04,-222.8"/>
<text text-anchor="start" x="1048.26" y="-213.2" font-family="Times,serif" font-weight="bold" font-size="14.00">Profiles.js</text>
<text text-anchor="start" x="1021.98" y="-185.2" font-family="Times,serif" font-size="14.00">/** @tag profiles */</text>
</g>
<!-- pom_index&#45;&gt;pom_profile_gate -->
<g id="edge22" class="edge" data-name="pom_index-&gt;pom_profiles" data-comment="pom_index-&gt;pom_profile_gate">

<path fill="none" stroke="green" d="M895.58,-276.41C924.38,-265.1 968.01,-247.97 1005.38,-233.3"/>
<polygon fill="green" stroke="green" points="1006.3,-236.7 1014.33,-229.79 1003.74,-230.19 1006.3,-236.7"/>
</g>
<!-- pom_mdp -->
<g id="node22" class="node" pointer-events="visible" data-name="pom_details" data-comment="pom_mdp">

<polygon fill="none" stroke="black" points="706.82,-228.8 591.18,-228.8 591.18,-178.8 712.82,-178.8 712.82,-222.8 706.82,-228.8"/>
<polyline fill="none" stroke="black" points="706.82,-228.8 706.82,-222.8"/>
<polyline fill="none" stroke="black" points="712.82,-222.8 706.82,-222.8"/>
<text text-anchor="start" x="624.59" y="-213.2" font-family="Times,serif" font-weight="bold" font-size="14.00">Details.js</text>
<text text-anchor="start" x="599.09" y="-185.2" font-family="Times,serif" font-size="14.00">/** @tag details */</text>
</g>
<!-- pom_index&#45;&gt;pom_mdp -->
<g id="edge23" class="edge" data-name="pom_index-&gt;pom_details" data-comment="pom_index-&gt;pom_mdp">

<path fill="none" stroke="green" d="M832.26,-276.22C803.54,-264.85 760.21,-247.68 723.23,-233.02"/>
<polygon fill="green" stroke="green" points="724.97,-229.95 714.39,-229.52 722.4,-236.46 724.97,-229.95"/>
</g>
<!-- pom_browse -->
<g id="node23" class="node" pointer-events="visible" data-name="pom_browse">

<polygon fill="none" stroke="black" points="850.71,-228.8 731.29,-228.8 731.29,-178.8 856.71,-178.8 856.71,-222.8 850.71,-228.8"/>
<polyline fill="none" stroke="black" points="850.71,-228.8 850.71,-222.8"/>
<polyline fill="none" stroke="black" points="856.71,-222.8 850.71,-222.8"/>
<text text-anchor="start" x="765.03" y="-213.2" font-family="Times,serif" font-weight="bold" font-size="14.00">Browse.js</text>
<text text-anchor="start" x="739.15" y="-185.2" font-family="Times,serif" font-size="14.00">/** @tag browse */</text>
</g>
<!-- pom_index&#45;&gt;pom_browse -->
<g id="edge24" class="edge" data-name="pom_index-&gt;pom_browse">

<path fill="none" stroke="rgb(0, 128, 0)" d="M849.5,-271.4C841.39,-261.67 831.02,-249.22 821.44,-237.73"/>
<polygon fill="green" stroke="green" points="824.38,-235.79 815.29,-230.35 819.01,-240.28 824.38,-235.79"/>
</g>
<!-- pom_keyboard -->
<g id="node24" class="node" pointer-events="visible" data-name="pom_keyboard">

<polygon fill="none" stroke="black" points="997.87,-142.8 866.13,-142.8 866.13,-92.8 1003.87,-92.8 1003.87,-136.8 997.87,-142.8"/>
<polyline fill="none" stroke="black" points="997.87,-142.8 997.87,-136.8"/>
<polyline fill="none" stroke="black" points="1003.87,-136.8 997.87,-136.8"/>
<text text-anchor="start" x="898.25" y="-127.2" font-family="Times,serif" font-weight="bold" font-size="14.00">Keyboard.js</text>
<text text-anchor="start" x="874.32" y="-99.2" font-family="Times,serif" font-size="14.00">/** @tag keyboard */</text>
</g>
<!-- pom_search&#45;&gt;pom_keyboard -->
<g id="edge25" class="edge" data-name="pom_search-&gt;pom_keyboard">

<path fill="none" stroke="rgb(0, 128, 0)" d="M935,-178.5C935,-171.02 935,-162.61 935,-154.52"/>
<polygon fill="green" stroke="green" points="938.5,-154.56 935,-144.56 931.5,-154.56 938.5,-154.56"/>
</g>
</g>
</svg>