<?xml version="1.0" encoding="UTF-8" standalone="no"?>
<!DOCTYPE svg PUBLIC "-//W3C//DTD SVG 1.1//EN"
 "http://www.w3.org/Graphics/SVG/1.1/DTD/svg11.dtd">
<!-- Generated by graphviz version 7.0.4 (20221203.1631)
 -->
<!-- Title: G Pages: 1 -->
<svg width="1633pt" height="446pt"
 viewBox="0.00 0.00 1633.00 446.00" xmlns="http://www.w3.org/2000/svg" xmlns:xlink="http://www.w3.org/1999/xlink">
<g id="page0,1_graph0" class="graph" transform="scale(1 1) rotate(0) translate(4 442)">
<title>G</title>
<polygon fill="white" stroke="none" points="-4,4 -4,-442 1629,-442 1629,4 -4,4"/>
<g id="clust1" class="cluster">
<title>routes</title>
<path fill="none" stroke="black" d="M20,-8C20,-8 556,-8 556,-8 562,-8 568,-14 568,-20 568,-20 568,-411 568,-411 568,-417 562,-423 556,-423 556,-423 20,-423 20,-423 14,-423 8,-417 8,-411 8,-411 8,-20 8,-20 8,-14 14,-8 20,-8"/>
<text text-anchor="start" x="251" y="-408.8" font-family="Helvetica,Arial,sans-serif" font-weight="bold" font-size="14.00">Application</text>
</g>
<g id="clust2" class="cluster">
<title>tests</title>
<path fill="none" stroke="black" d="M812,-341C812,-341 1605,-341 1605,-341 1611,-341 1617,-347 1617,-353 1617,-353 1617,-418 1617,-418 1617,-424 1611,-430 1605,-430 1605,-430 812,-430 812,-430 806,-430 800,-424 800,-418 800,-418 800,-353 800,-353 800,-347 806,-341 812,-341"/>
<text text-anchor="start" x="1154.5" y="-415.8" font-family="Helvetica,Arial,sans-serif" font-weight="bold" font-size="14.00">Functional Tests</text>
</g>
<g id="clust3" class="cluster">
<title>page_object_model</title>
<path fill="none" stroke="black" d="M588,-60C588,-60 1124,-60 1124,-60 1130,-60 1136,-66 1136,-72 1136,-72 1136,-302 1136,-302 1136,-308 1130,-314 1124,-314 1124,-314 588,-314 588,-314 582,-314 576,-308 576,-302 576,-302 576,-72 576,-72 576,-66 582,-60 588,-60"/>
<text text-anchor="start" x="794.5" y="-68.8" font-family="Helvetica,Arial,sans-serif" font-weight="bold" font-size="14.00">Page Object Model</text>
</g>
<!-- route_index -->
<g id="node1" class="node">
<title>route_index</title>
<polygon fill="none" stroke="black" points="314,-392 258,-392 258,-356 320,-356 320,-386 314,-392"/>
<polyline fill="none" stroke="black" points="314,-392 314,-386"/>
<polyline fill="none" stroke="black" points="320,-386 314,-386"/>
<text text-anchor="start" x="266" y="-371.3" font-family="Times,serif" font-weight="bold" font-size="14.00">index.js</text>
</g>
<!-- route_profiles -->
<g id="node2" class="node">
<title>route_profiles</title>
<polygon fill="none" stroke="black" points="136,-313 16,-313 16,-263 142,-263 142,-307 136,-313"/>
<polyline fill="none" stroke="black" points="136,-313 136,-307"/>
<polyline fill="none" stroke="black" points="142,-307 136,-307"/>
<text text-anchor="start" x="50" y="-298.8" font-family="Times,serif" font-weight="bold" font-size="14.00">Profiles.js</text>
<text text-anchor="start" x="24" y="-270.8" font-family="Times,serif" font-size="14.00">/** @tag profiles */</text>
</g>
<!-- route_index&#45;&gt;route_profiles -->
<g id="edge2" class="edge">
<title>route_index&#45;&gt;route_profiles</title>
<path fill="none" stroke="black" d="M257.56,-360.42C229.34,-349.14 186.87,-332.15 150.43,-317.57"/>
<polygon fill="black" stroke="black" points="151.82,-314.36 141.24,-313.89 149.22,-320.86 151.82,-314.36"/>
</g>
<!-- route_search -->
<g id="node3" class="node">
<title>route_search</title>
<polygon fill="none" stroke="black" points="273.5,-313 160.5,-313 160.5,-263 279.5,-263 279.5,-307 273.5,-313"/>
<polyline fill="none" stroke="black" points="273.5,-313 273.5,-307"/>
<polyline fill="none" stroke="black" points="279.5,-307 273.5,-307"/>
<text text-anchor="start" x="193" y="-298.8" font-family="Times,serif" font-weight="bold" font-size="14.00">Search.js</text>
<text text-anchor="start" x="168.5" y="-270.8" font-family="Times,serif" font-size="14.00">/** @tag search */</text>
</g>
<!-- route_index&#45;&gt;route_search -->
<g id="edge4" class="edge">
<title>route_index&#45;&gt;route_search</title>
<path fill="none" stroke="black" d="M274.7,-355.6C266.79,-345.96 256.69,-333.67 247.33,-322.27"/>
<polygon fill="black" stroke="black" points="250.05,-320.06 241,-314.56 244.64,-324.51 250.05,-320.06"/>
</g>
<!-- route_details -->
<g id="node4" class="node">
<title>route_details</title>
<polygon fill="none" stroke="black" points="412,-313 298,-313 298,-263 418,-263 418,-307 412,-313"/>
<polyline fill="none" stroke="black" points="412,-313 412,-307"/>
<polyline fill="none" stroke="black" points="418,-307 412,-307"/>
<text text-anchor="start" x="331" y="-298.8" font-family="Times,serif" font-weight="bold" font-size="14.00">Details.js</text>
<text text-anchor="start" x="306" y="-270.8" font-family="Times,serif" font-size="14.00">/** @tag details */</text>
</g>
<!-- route_index&#45;&gt;route_details -->
<g id="edge3" class="edge">
<title>route_index&#45;&gt;route_details</title>
<path fill="none" stroke="black" d="M303.3,-355.6C311.21,-345.96 321.31,-333.67 330.67,-322.27"/>
<polygon fill="black" stroke="black" points="333.36,-324.51 337,-314.56 327.95,-320.06 333.36,-324.51"/>
</g>
<!-- route_browse -->
<g id="node5" class="node">
<title>route_browse</title>
<polygon fill="none" stroke="black" points="554,-313 436,-313 436,-263 560,-263 560,-307 554,-313"/>
<polyline fill="none" stroke="black" points="554,-313 554,-307"/>
<polyline fill="none" stroke="black" points="560,-307 554,-307"/>
<text text-anchor="start" x="469.5" y="-298.8" font-family="Times,serif" font-weight="bold" font-size="14.00">Browse.js</text>
<text text-anchor="start" x="444" y="-270.8" font-family="Times,serif" font-size="14.00">/** @tag browse */</text>
</g>
<!-- route_index&#45;&gt;route_browse -->
<g id="edge1" class="edge">
<title>route_index&#45;&gt;route_browse</title>
<path fill="none" stroke="black" d="M320.29,-360.42C348.38,-349.14 390.64,-332.15 426.91,-317.57"/>
<polygon fill="black" stroke="black" points="428.08,-320.87 436.05,-313.9 425.47,-314.38 428.08,-320.87"/>
</g>
<!-- component_menu -->
<g id="node6" class="node">
<title>component_menu</title>
<polygon fill="none" stroke="black" points="310.5,-220 251.5,-220 251.5,-184 316.5,-184 316.5,-214 310.5,-220"/>
<polyline fill="none" stroke="black" points="310.5,-220 310.5,-214"/>
<polyline fill="none" stroke="black" points="316.5,-214 310.5,-214"/>
<text text-anchor="start" x="259.5" y="-199.3" font-family="Times,serif" font-weight="bold" font-size="14.00">Menu.js</text>
</g>
<!-- route_profiles&#45;&gt;component_menu -->
<g id="edge7" class="edge">
<title>route_profiles&#45;&gt;component_menu</title>
<path fill="none" stroke="black" d="M142.3,-264.92C179.88,-251.57 223.69,-235.53 242,-227 242.93,-226.57 243.87,-226.12 244.82,-225.66"/>
<polygon fill="black" stroke="black" points="246.33,-228.81 253.61,-221.12 243.12,-222.6 246.33,-228.81"/>
</g>
<!-- component_image -->
<g id="node11" class="node">
<title>component_image</title>
<polygon fill="none" stroke="black" points="311.5,-52 250.5,-52 250.5,-16 317.5,-16 317.5,-46 311.5,-52"/>
<polyline fill="none" stroke="black" points="311.5,-52 311.5,-46"/>
<polyline fill="none" stroke="black" points="317.5,-46 311.5,-46"/>
<text text-anchor="start" x="258.5" y="-31.3" font-family="Times,serif" font-weight="bold" font-size="14.00">Image.js</text>
</g>
<!-- route_profiles&#45;&gt;component_image -->
<g id="edge8" class="edge">
<title>route_profiles&#45;&gt;component_image</title>
<path fill="none" stroke="black" d="M76.4,-262.94C74.96,-239.72 75.64,-204.2 89,-177 122.69,-108.41 149.77,-99.81 215,-60 222.57,-55.38 231.13,-51.42 239.57,-48.11"/>
<polygon fill="black" stroke="black" points="240.51,-51.5 248.7,-44.78 238.11,-44.92 240.51,-51.5"/>
</g>
<!-- route_search&#45;&gt;component_menu -->
<g id="edge11" class="edge">
<title>route_search&#45;&gt;component_menu</title>
<path fill="none" stroke="black" d="M238.51,-262.7C246.51,-252.21 255.88,-239.91 264.03,-229.21"/>
<polygon fill="black" stroke="black" points="266.62,-231.59 269.89,-221.51 261.05,-227.35 266.62,-231.59"/>
</g>
<!-- component_keyboard -->
<g id="node7" class="node">
<title>component_keyboard</title>
<polygon fill="none" stroke="black" points="227.5,-227 98.5,-227 98.5,-177 233.5,-177 233.5,-221 227.5,-227"/>
<polyline fill="none" stroke="black" points="227.5,-227 227.5,-221"/>
<polyline fill="none" stroke="black" points="233.5,-221 227.5,-221"/>
<text text-anchor="start" x="129.5" y="-212.8" font-family="Times,serif" font-weight="bold" font-size="14.00">Keyboard.js</text>
<text text-anchor="start" x="106.5" y="-184.8" font-family="Times,serif" font-size="14.00">/** @tag keyboard */</text>
</g>
<!-- route_search&#45;&gt;component_keyboard -->
<g id="edge13" class="edge">
<title>route_search&#45;&gt;component_keyboard</title>
<path fill="none" stroke="black" d="M204.38,-262.7C199.18,-254.61 193.28,-245.43 187.7,-236.75"/>
<polygon fill="black" stroke="black" points="190.75,-235.03 182.4,-228.51 184.87,-238.82 190.75,-235.03"/>
</g>
<!-- component_boxshot -->
<g id="node8" class="node">
<title>component_boxshot</title>
<polygon fill="none" stroke="black" points="405.5,-220 334.5,-220 334.5,-184 411.5,-184 411.5,-214 405.5,-220"/>
<polyline fill="none" stroke="black" points="405.5,-220 405.5,-214"/>
<polyline fill="none" stroke="black" points="411.5,-214 405.5,-214"/>
<text text-anchor="start" x="342.5" y="-199.3" font-family="Times,serif" font-weight="bold" font-size="14.00">Boxshot.js</text>
</g>
<!-- route_search&#45;&gt;component_boxshot -->
<g id="edge12" class="edge">
<title>route_search&#45;&gt;component_boxshot</title>
<path fill="none" stroke="black" d="M264.25,-262.7C285.49,-251.04 310.78,-237.16 331.63,-225.71"/>
<polygon fill="black" stroke="black" points="333.06,-228.92 340.15,-221.04 329.7,-222.78 333.06,-228.92"/>
</g>
<!-- route_details&#45;&gt;component_menu -->
<g id="edge10" class="edge">
<title>route_details&#45;&gt;component_menu</title>
<path fill="none" stroke="black" d="M336.6,-262.7C327.26,-252.1 316.3,-239.66 306.81,-228.89"/>
<polygon fill="black" stroke="black" points="309.49,-226.64 300.25,-221.45 304.23,-231.26 309.49,-226.64"/>
</g>
<!-- component_synopsis -->
<g id="node9" class="node">
<title>component_synopsis</title>
<polygon fill="none" stroke="black" points="504,-220 430,-220 430,-184 510,-184 510,-214 504,-220"/>
<polyline fill="none" stroke="black" points="504,-220 504,-214"/>
<polyline fill="none" stroke="black" points="510,-214 504,-214"/>
<text text-anchor="start" x="438" y="-199.3" font-family="Times,serif" font-weight="bold" font-size="14.00">Synopsis.js</text>
</g>
<!-- route_details&#45;&gt;component_synopsis -->
<g id="edge9" class="edge">
<title>route_details&#45;&gt;component_synopsis</title>
<path fill="none" stroke="black" d="M390.4,-262.7C405.38,-251.47 423.11,-238.16 438.04,-226.97"/>
<polygon fill="black" stroke="black" points="439.81,-230.02 445.71,-221.22 435.61,-224.42 439.81,-230.02"/>
</g>
<!-- route_browse&#45;&gt;component_boxshot -->
<g id="edge6" class="edge">
<title>route_browse&#45;&gt;component_boxshot</title>
<path fill="none" stroke="black" d="M461.84,-262.7C444.97,-251.36 424.95,-237.91 408.2,-226.65"/>
<polygon fill="black" stroke="black" points="410.27,-223.83 400.01,-221.15 406.36,-229.64 410.27,-223.83"/>
</g>
<!-- route_browse&#45;&gt;component_synopsis -->
<g id="edge5" class="edge">
<title>route_browse&#45;&gt;component_synopsis</title>
<path fill="none" stroke="black" d="M489.9,-262.7C486.62,-252.85 482.8,-241.4 479.39,-231.18"/>
<polygon fill="black" stroke="black" points="482.73,-230.13 476.25,-221.75 476.09,-232.34 482.73,-230.13"/>
</g>
<!-- component_button -->
<g id="node10" class="node">
<title>component_button</title>
<polygon fill="none" stroke="black" points="337.5,-141 224.5,-141 224.5,-91 343.5,-91 343.5,-135 337.5,-141"/>
<polyline fill="none" stroke="black" points="337.5,-141 337.5,-135"/>
<polyline fill="none" stroke="black" points="343.5,-135 337.5,-135"/>
<text text-anchor="start" x="257" y="-126.8" font-family="Times,serif" font-weight="bold" font-size="14.00">Button.js</text>
<text text-anchor="start" x="232.5" y="-98.8" font-family="Times,serif" font-size="14.00">/** @tag button */</text>
</g>
<!-- component_menu&#45;&gt;component_button -->
<g id="edge14" class="edge">
<title>component_menu&#45;&gt;component_button</title>
<path fill="none" stroke="black" d="M284,-183.6C284,-174.63 284,-163.36 284,-152.65"/>
<polygon fill="black" stroke="black" points="287.5,-152.9 284,-142.9 280.5,-152.9 287.5,-152.9"/>
</g>
<!-- component_keyboard&#45;&gt;component_button -->
<g id="edge15" class="edge">
<title>component_keyboard&#45;&gt;component_button</title>
<path fill="none" stroke="black" d="M200.13,-176.7C212.85,-167.65 227.46,-157.25 240.88,-147.7"/>
<polygon fill="black" stroke="black" points="242.6,-150.77 248.71,-142.12 238.54,-145.07 242.6,-150.77"/>
</g>
<!-- component_boxshot&#45;&gt;component_image -->
<g id="edge16" class="edge">
<title>component_boxshot&#45;&gt;component_image</title>
<path fill="none" stroke="black" d="M375.78,-183.61C379.38,-154.58 382.15,-95.89 353,-60 346.77,-52.32 337.97,-47 328.73,-43.32"/>
<polygon fill="black" stroke="black" points="329.85,-40 319.26,-40.17 327.65,-46.64 329.85,-40"/>
</g>
<!-- component_text -->
<g id="node12" class="node">
<title>component_text</title>
<polygon fill="none" stroke="black" points="418,-52 368,-52 368,-16 424,-16 424,-46 418,-52"/>
<polyline fill="none" stroke="black" points="418,-52 418,-46"/>
<polyline fill="none" stroke="black" points="424,-46 418,-46"/>
<text text-anchor="start" x="376" y="-31.3" font-family="Times,serif" font-weight="bold" font-size="14.00">Text.js</text>
</g>
<!-- component_synopsis&#45;&gt;component_text -->
<g id="edge17" class="edge">
<title>component_synopsis&#45;&gt;component_text</title>
<path fill="none" stroke="black" d="M462.22,-183.55C449.4,-154.78 423.71,-97.17 408.37,-62.76"/>
<polygon fill="black" stroke="black" points="411.67,-61.56 404.4,-53.85 405.28,-64.41 411.67,-61.56"/>
</g>
<!-- component_button&#45;&gt;component_image -->
<g id="edge18" class="edge">
<title>component_button&#45;&gt;component_image</title>
<path fill="none" stroke="black" d="M284,-90.56C284,-82.1 284,-72.53 284,-63.75"/>
<polygon fill="black" stroke="black" points="287.5,-63.95 284,-53.95 280.5,-63.95 287.5,-63.95"/>
</g>
<!-- component_button&#45;&gt;component_text -->
<g id="edge19" class="edge">
<title>component_button&#45;&gt;component_text</title>
<path fill="none" stroke="black" d="M318.21,-90.56C332.22,-80.56 348.38,-69.01 362.33,-59.05"/>
<polygon fill="black" stroke="black" points="364.25,-61.98 370.35,-53.32 360.18,-56.28 364.25,-61.98"/>
</g>
<!-- test_browse -->
<g id="node13" class="node">
<title>test_browse</title>
<polygon fill="none" stroke="black" points="1603,-399 1485,-399 1485,-349 1609,-349 1609,-393 1603,-399"/>
<polyline fill="none" stroke="black" points="1603,-399 1603,-393"/>
<polyline fill="none" stroke="black" points="1609,-393 1603,-393"/>
<text text-anchor="start" x="1507.5" y="-384.8" font-family="Times,serif" font-weight="bold" font-size="14.00">browse.test.js</text>
<text text-anchor="start" x="1493" y="-356.8" font-family="Times,serif" font-size="14.00">/** @tag browse */</text>
</g>
<!-- test_button -->
<g id="node14" class="node">
<title>test_button</title>
<polygon fill="none" stroke="black" points="1460.5,-399 1347.5,-399 1347.5,-349 1466.5,-349 1466.5,-393 1460.5,-399"/>
<polyline fill="none" stroke="black" points="1460.5,-399 1460.5,-393"/>
<polyline fill="none" stroke="black" points="1466.5,-393 1460.5,-393"/>
<text text-anchor="start" x="1369" y="-384.8" font-family="Times,serif" font-weight="bold" font-size="14.00">button.test.js</text>
<text text-anchor="start" x="1355.5" y="-356.8" font-family="Times,serif" font-size="14.00">/** @tag button */</text>
</g>
<!-- test_keyboard -->
<g id="node15" class="node">
<title>test_keyboard</title>
<polygon fill="none" stroke="black" points="1323.5,-399 1194.5,-399 1194.5,-349 1329.5,-349 1329.5,-393 1323.5,-399"/>
<polyline fill="none" stroke="black" points="1323.5,-399 1323.5,-393"/>
<polyline fill="none" stroke="black" points="1329.5,-393 1323.5,-393"/>
<text text-anchor="start" x="1215.5" y="-384.8" font-family="Times,serif" font-weight="bold" font-size="14.00">keyboard.test.js</text>
<text text-anchor="start" x="1202.5" y="-356.8" font-family="Times,serif" font-size="14.00">/** @tag keyboard */</text>
</g>
<!-- test_details -->
<g id="node16" class="node">
<title>test_details</title>
<polygon fill="none" stroke="black" points="1170,-399 1056,-399 1056,-349 1176,-349 1176,-393 1170,-399"/>
<polyline fill="none" stroke="black" points="1170,-399 1170,-393"/>
<polyline fill="none" stroke="black" points="1176,-393 1170,-393"/>
<text text-anchor="start" x="1078" y="-384.8" font-family="Times,serif" font-weight="bold" font-size="14.00">details.test.js</text>
<text text-anchor="start" x="1064" y="-356.8" font-family="Times,serif" font-size="14.00">/** @tag details */</text>
</g>
<!-- test_search -->
<g id="node17" class="node">
<title>test_search</title>
<polygon fill="none" stroke="black" points="1031.5,-399 918.5,-399 918.5,-349 1037.5,-349 1037.5,-393 1031.5,-399"/>
<polyline fill="none" stroke="black" points="1031.5,-399 1031.5,-393"/>
<polyline fill="none" stroke="black" points="1037.5,-393 1031.5,-393"/>
<text text-anchor="start" x="940" y="-384.8" font-family="Times,serif" font-weight="bold" font-size="14.00">search.test.js</text>
<text text-anchor="start" x="926.5" y="-356.8" font-family="Times,serif" font-size="14.00">/** @tag search */</text>
</g>
<!-- test_smoke -->
<g id="node18" class="node">
<title>test_smoke</title>
<polygon fill="none" stroke="black" points="894,-392 808,-392 808,-356 900,-356 900,-386 894,-392"/>
<polyline fill="none" stroke="black" points="894,-392 894,-386"/>
<polyline fill="none" stroke="black" points="900,-386 894,-386"/>
<text text-anchor="start" x="816" y="-371.3" font-family="Times,serif" font-weight="bold" font-size="14.00">smoke.test.js</text>
</g>
<!-- pom_index -->
<g id="node19" class="node">
<title>pom_index</title>
<polygon fill="none" stroke="black" points="879,-306 823,-306 823,-270 885,-270 885,-300 879,-306"/>
<polyline fill="none" stroke="black" points="879,-306 879,-300"/>
<polyline fill="none" stroke="black" points="885,-300 879,-300"/>
<text text-anchor="start" x="831" y="-285.3" font-family="Times,serif" font-weight="bold" font-size="14.00">index.js</text>
</g>
<!-- test_smoke&#45;&gt;pom_index -->
<g id="edge20" class="edge">
<title>test_smoke&#45;&gt;pom_index</title>
<path fill="none" stroke="black" d="M854,-355.6C854,-344.67 854,-330.32 854,-317.73"/>
<polygon fill="black" stroke="black" points="857.5,-317.9 854,-307.9 850.5,-317.9 857.5,-317.9"/>
</g>
<!-- pom_search -->
<g id="node20" class="node">
<title>pom_search</title>
<polygon fill="none" stroke="black" points="977.5,-227 864.5,-227 864.5,-177 983.5,-177 983.5,-221 977.5,-227"/>
<polyline fill="none" stroke="black" points="977.5,-227 977.5,-221"/>
<polyline fill="none" stroke="black" points="983.5,-221 977.5,-221"/>
<text text-anchor="start" x="897" y="-212.8" font-family="Times,serif" font-weight="bold" font-size="14.00">Search.js</text>
<text text-anchor="start" x="872.5" y="-184.8" font-family="Times,serif" font-size="14.00">/** @tag search */</text>
</g>
<!-- pom_index&#45;&gt;pom_search -->
<g id="edge21" class="edge">
<title>pom_index&#45;&gt;pom_search</title>
<path fill="none" stroke="black" d="M868.5,-269.6C876.61,-259.87 886.98,-247.42 896.56,-235.93"/>
<polygon fill="black" stroke="black" points="898.99,-238.48 902.71,-228.55 893.62,-233.99 898.99,-238.48"/>
</g>
<!-- pom_profiles -->
<g id="node21" class="node">
<title>pom_profiles</title>
<polygon fill="none" stroke="black" points="1122,-227 1002,-227 1002,-177 1128,-177 1128,-221 1122,-227"/>
<polyline fill="none" stroke="black" points="1122,-227 1122,-221"/>
<polyline fill="none" stroke="black" points="1128,-221 1122,-221"/>
<text text-anchor="start" x="1036" y="-212.8" font-family="Times,serif" font-weight="bold" font-size="14.00">Profiles.js</text>
<text text-anchor="start" x="1010" y="-184.8" font-family="Times,serif" font-size="14.00">/** @tag profiles */</text>
</g>
<!-- pom_index&#45;&gt;pom_profiles -->
<g id="edge22" class="edge">
<title>pom_index&#45;&gt;pom_profiles</title>
<path fill="none" stroke="black" d="M885.13,-274.61C913.41,-263.35 956.18,-246.32 992.93,-231.69"/>
<polygon fill="black" stroke="black" points="994.21,-234.95 1002.21,-228 991.62,-228.45 994.21,-234.95"/>
</g>
<!-- pom_details -->
<g id="node22" class="node">
<title>pom_details</title>
<polygon fill="none" stroke="black" points="698,-227 584,-227 584,-177 704,-177 704,-221 698,-227"/>
<polyline fill="none" stroke="black" points="698,-227 698,-221"/>
<polyline fill="none" stroke="black" points="704,-221 698,-221"/>
<text text-anchor="start" x="617" y="-212.8" font-family="Times,serif" font-weight="bold" font-size="14.00">Details.js</text>
<text text-anchor="start" x="592" y="-184.8" font-family="Times,serif" font-size="14.00">/** @tag details */</text>
</g>
<!-- pom_index&#45;&gt;pom_details -->
<g id="edge23" class="edge">
<title>pom_index&#45;&gt;pom_details</title>
<path fill="none" stroke="black" d="M822.56,-274.42C794.23,-263.09 751.56,-246.02 715.02,-231.41"/>
<polygon fill="black" stroke="black" points="716.4,-228.19 705.81,-227.72 713.8,-234.69 716.4,-228.19"/>
</g>
<!-- pom_browse -->
<g id="node23" class="node">
<title>pom_browse</title>
<polygon fill="none" stroke="black" points="840,-227 722,-227 722,-177 846,-177 846,-221 840,-227"/>
<polyline fill="none" stroke="black" points="840,-227 840,-221"/>
<polyline fill="none" stroke="black" points="846,-221 840,-221"/>
<text text-anchor="start" x="755.5" y="-212.8" font-family="Times,serif" font-weight="bold" font-size="14.00">Browse.js</text>
<text text-anchor="start" x="730" y="-184.8" font-family="Times,serif" font-size="14.00">/** @tag browse */</text>
</g>
<!-- pom_index&#45;&gt;pom_browse -->
<g id="edge24" class="edge">
<title>pom_index&#45;&gt;pom_browse</title>
<path fill="none" stroke="black" d="M839.5,-269.6C831.39,-259.87 821.02,-247.42 811.44,-235.93"/>
<polygon fill="black" stroke="black" points="814.38,-233.99 805.29,-228.55 809.01,-238.48 814.38,-233.99"/>
</g>
<!-- pom_keyboard -->
<g id="node24" class="node">
<title>pom_keyboard</title>
<polygon fill="none" stroke="black" points="985.5,-141 856.5,-141 856.5,-91 991.5,-91 991.5,-135 985.5,-141"/>
<polyline fill="none" stroke="black" points="985.5,-141 985.5,-135"/>
<polyline fill="none" stroke="black" points="991.5,-135 985.5,-135"/>
<text text-anchor="start" x="887.5" y="-126.8" font-family="Times,serif" font-weight="bold" font-size="14.00">Keyboard.js</text>
<text text-anchor="start" x="864.5" y="-98.8" font-family="Times,serif" font-size="14.00">/** @tag keyboard */</text>
</g>
<!-- pom_search&#45;&gt;pom_keyboard -->
<g id="edge25" class="edge">
<title>pom_search&#45;&gt;pom_keyboard</title>
<path fill="none" stroke="black" d="M924,-176.7C924,-169.22 924,-160.81 924,-152.72"/>
<polygon fill="black" stroke="black" points="927.5,-152.76 924,-142.76 920.5,-152.76 927.5,-152.76"/>
</g>
</g>
</svg>
