<?xml version="1.0" standalone="no"?>
<svg xmlns="http://www.w3.org/2000/svg" xmlns:xlink="http://www.w3.org/1999/xlink" width="1245pt" height="394pt" viewBox="0.00 0.00 1245 393.6">
<g id="graph0" class="graph" transform="translate(4,389.6000061035156) scale(1)" data-name="G">

<polygon fill="white" stroke="none" points="-4,4 -4,-389.6 1241,-389.6 1241,4 -4,4"/>
<g id="clust1" class="cluster" data-name="routes">

<path fill="none" stroke="black" d="M20,-8C20,-8 400,-8 400,-8 406,-8 412,-14 412,-20 412,-20 412,-365.6 412,-365.6 412,-371.6 406,-377.6 400,-377.6 400,-377.6 20,-377.6 20,-377.6 14,-377.6 8,-371.6 8,-365.6 8,-365.6 8,-20 8,-20 8,-14 14,-8 20,-8"/>
<text text-anchor="start" x="174.99" y="-362" font-family="Helvetica,Arial,sans-serif" font-weight="bold" font-size="14">Application</text>
</g>
<g id="clust2" class="cluster" data-name="tests">

<path fill="none" stroke="black" d="M556,-300.8C556,-300.8 1217,-300.8 1217,-300.8 1223,-300.8 1229,-306.8 1229,-312.8 1229,-312.8 1229,-365.6 1229,-365.6 1229,-371.6 1223,-377.6 1217,-377.6 1217,-377.6 556,-377.6 556,-377.6 550,-377.6 544,-371.6 544,-365.6 544,-365.6 544,-312.8 544,-312.8 544,-306.8 550,-300.8 556,-300.8"/>
<text text-anchor="start" x="836.91" y="-362" font-family="Helvetica,Arial,sans-serif" font-weight="bold" font-size="14">Functional Tests</text>
</g>
<g id="clust3" class="cluster" data-name="page_object_model">

<path fill="none" stroke="black" d="M432,-60C432,-60 768,-60 768,-60 774,-60 780,-66 780,-72 780,-72 780,-268.8 780,-268.8 780,-274.8 774,-280.8 768,-280.8 768,-280.8 432,-280.8 432,-280.8 426,-280.8 420,-274.8 420,-268.8 420,-268.8 420,-72 420,-72 420,-66 426,-60 432,-60"/>
<text text-anchor="start" x="542.85" y="-69.2" font-family="Helvetica,Arial,sans-serif" font-weight="bold" font-size="14">Page Object Model</text>
</g>
<!-- route_index -->
<g id="node1" class="node" pointer-events="visible" data-name="route_index">

<polygon fill="none" stroke="black" points="245.29,-344.8 188.71,-344.8 188.71,-308.8 251.29,-308.8 251.29,-338.8 245.29,-344.8"/>
<polyline fill="none" stroke="black" points="245.29,-344.8 245.29,-338.8"/>
<polyline fill="none" stroke="black" points="251.29,-338.8 245.29,-338.8"/>
<text text-anchor="start" x="196.86" y="-323.6" font-family="Times,serif" font-weight="bold" font-size="14.00">index.js</text>
</g>
<!-- route_profile_gate -->
<g id="node2" class="node" pointer-events="visible" data-name="route_profiles" data-comment="route_profile_gate">

<polygon fill="none" stroke="black" points="116.98,-272.8 47.02,-272.8 47.02,-236.8 122.98,-236.8 122.98,-266.8 116.98,-272.8"/>
<polyline fill="none" stroke="black" points="116.98,-272.8 116.98,-266.8"/>
<polyline fill="none" stroke="black" points="122.98,-266.8 116.98,-266.8"/>
<text text-anchor="start" x="55.26" y="-251.6" font-family="Times,serif" font-weight="bold" font-size="14.00">Profiles.js</text>
</g>
<!-- route_index&#45;&gt;route_profile_gate -->
<g id="edge2" class="edge" data-name="route_index-&gt;route_profiles" data-comment="route_index-&gt;route_profile_gate">

<path fill="none" stroke="black" d="M188.58,-309.89C171.76,-301.33 150.71,-290.56 132,-280.8 130.54,-280.04 129.06,-279.26 127.56,-278.48"/>
<polygon fill="black" stroke="black" points="129.4,-275.49 118.92,-273.92 126.13,-281.68 129.4,-275.49"/>
</g>
<!-- route_search -->
<g id="node3" class="node" pointer-events="visible" data-name="route_search">

<polygon fill="none" stroke="black" points="205.32,-272.8 140.68,-272.8 140.68,-236.8 211.32,-236.8 211.32,-266.8 205.32,-272.8"/>
<polyline fill="none" stroke="black" points="205.32,-272.8 205.32,-266.8"/>
<polyline fill="none" stroke="black" points="211.32,-266.8 205.32,-266.8"/>
<text text-anchor="start" x="148.59" y="-251.6" font-family="Times,serif" font-weight="bold" font-size="14.00">Search.js</text>
</g>
<!-- route_index&#45;&gt;route_search -->
<g id="edge4" class="edge" data-name="route_index-&gt;route_search">

<path fill="none" stroke="black" d="M209.12,-308.5C204.22,-300.7 198.32,-291.31 192.86,-282.63"/>
<polygon fill="black" stroke="black" points="195.84,-280.79 187.56,-274.19 189.92,-284.51 195.84,-280.79"/>
</g>
<!-- route_mdp -->
<g id="node4" class="node" pointer-events="visible" data-name="route_details" data-comment="route_mdp">

<polygon fill="none" stroke="black" points="294.32,-272.8 229.68,-272.8 229.68,-236.8 300.32,-236.8 300.32,-266.8 294.32,-272.8"/>
<polyline fill="none" stroke="black" points="294.32,-272.8 294.32,-266.8"/>
<polyline fill="none" stroke="black" points="300.32,-266.8 294.32,-266.8"/>
<text text-anchor="start" x="237.59" y="-251.6" font-family="Times,serif" font-weight="bold" font-size="14.00">Details.js</text>
</g>
<!-- route_index&#45;&gt;route_mdp -->
<g id="edge3" class="edge" data-name="route_index-&gt;route_details" data-comment="route_index-&gt;route_mdp">

<path fill="none" stroke="black" d="M231.12,-308.5C236.19,-300.61 242.3,-291.1 247.93,-282.35"/>
<polygon fill="black" stroke="black" points="250.72,-284.48 253.19,-274.18 244.83,-280.7 250.72,-284.48"/>
</g>
<!-- route_browse -->
<g id="node5" class="node" pointer-events="visible" data-name="route_browse">

<polygon fill="none" stroke="black" points="385.93,-272.8 318.07,-272.8 318.07,-236.8 391.93,-236.8 391.93,-266.8 385.93,-272.8"/>
<polyline fill="none" stroke="black" points="385.93,-272.8 385.93,-266.8"/>
<polyline fill="none" stroke="black" points="391.93,-266.8 385.93,-266.8"/>
<text text-anchor="start" x="326.03" y="-251.6" font-family="Times,serif" font-weight="bold" font-size="14.00">Browse.js</text>
</g>
<!-- route_index&#45;&gt;route_browse -->
<g id="edge1" class="edge" data-name="route_index-&gt;route_browse">

<path fill="none" stroke="black" d="M251.42,-310.2C268.51,-301.64 289.99,-290.77 309,-280.8 310.46,-280.03 311.94,-279.25 313.44,-278.46"/>
<polygon fill="black" stroke="black" points="314.89,-281.65 322.06,-273.85 311.59,-275.48 314.89,-281.65"/>
</g>
<!-- component_menu -->
<g id="node6" class="node" pointer-events="visible" data-name="component_menu">

<polygon fill="none" stroke="black" points="202.11,-200.8 143.89,-200.8 143.89,-164.8 208.11,-164.8 208.11,-194.8 202.11,-200.8"/>
<polyline fill="none" stroke="black" points="202.11,-200.8 202.11,-194.8"/>
<polyline fill="none" stroke="black" points="208.11,-194.8 202.11,-194.8"/>
<text text-anchor="start" x="151.69" y="-179.6" font-family="Times,serif" font-weight="bold" font-size="14.00">Menu.js</text>
</g>
<!-- route_profile_gate&#45;&gt;component_menu -->
<g id="edge7" class="edge" data-name="route_profiles-&gt;component_menu" data-comment="route_profile_gate-&gt;component_menu">

<path fill="none" stroke="black" d="M107.49,-236.5C118.65,-227.91 132.31,-217.41 144.49,-208.04"/>
<polygon fill="black" stroke="black" points="146.46,-210.94 152.25,-202.07 142.19,-205.39 146.46,-210.94"/>
</g>
<!-- component_image -->
<g id="node11" class="node" pointer-events="visible" data-name="component_image">

<polygon fill="none" stroke="black" points="203.43,-52 142.57,-52 142.57,-16 209.43,-16 209.43,-46 203.43,-52"/>
<polyline fill="none" stroke="black" points="203.43,-52 203.43,-46"/>
<polyline fill="none" stroke="black" points="209.43,-46 203.43,-46"/>
<text text-anchor="start" x="150.53" y="-30.8" font-family="Times,serif" font-weight="bold" font-size="14.00">Image.js</text>
</g>
<!-- route_profile_gate&#45;&gt;component_image -->
<g id="edge8" class="edge" data-name="route_profiles-&gt;component_image" data-comment="route_profile_gate-&gt;component_image">

<path fill="none" stroke="black" d="M57.36,-236.34C45.67,-227.31 33.33,-215.15 27,-200.8 20.55,-186.16 20.87,-179.58 27,-164.8 47,-116.57 95.88,-79.81 132.24,-57.93"/>
<polygon fill="black" stroke="black" points="133.95,-60.98 140.82,-52.92 130.42,-54.94 133.95,-60.98"/>
</g>
<!-- route_search&#45;&gt;component_menu -->
<g id="edge11" class="edge" data-name="route_search-&gt;component_menu">

<path fill="none" stroke="black" d="M176,-236.5C176,-229.21 176,-220.53 176,-212.34"/>
<polygon fill="black" stroke="black" points="179.5,-212.42 176,-202.42 172.5,-212.42 179.5,-212.42"/>
</g>
<!-- component_keyboard -->
<g id="node7" class="node" pointer-events="visible" data-name="component_keyboard">

<polygon fill="none" stroke="black" points="119.5,-200.8 36.5,-200.8 36.5,-164.8 125.5,-164.8 125.5,-194.8 119.5,-200.8"/>
<polyline fill="none" stroke="black" points="119.5,-200.8 119.5,-194.8"/>
<polyline fill="none" stroke="black" points="125.5,-194.8 119.5,-194.8"/>
<text text-anchor="start" x="44.25" y="-179.6" font-family="Times,serif" font-weight="bold" font-size="14.00">Keyboard.js</text>
</g>
<!-- route_search&#45;&gt;component_keyboard -->
<g id="edge13" class="edge" data-name="route_search-&gt;component_keyboard">

<path fill="none" stroke="black" d="M152.52,-236.5C140.76,-227.83 126.33,-217.2 113.52,-207.76"/>
<polygon fill="black" stroke="black" points="115.89,-205.16 105.76,-202.04 111.74,-210.79 115.89,-205.16"/>
</g>
<!-- component_boxshot -->
<g id="node8" class="node" pointer-events="visible" data-name="component_boxshot">

<polygon fill="none" stroke="black" points="297.84,-200.8 226.16,-200.8 226.16,-164.8 303.84,-164.8 303.84,-194.8 297.84,-200.8"/>
<polyline fill="none" stroke="black" points="297.84,-200.8 297.84,-194.8"/>
<polyline fill="none" stroke="black" points="303.84,-194.8 297.84,-194.8"/>
<text text-anchor="start" x="234.08" y="-179.6" font-family="Times,serif" font-weight="bold" font-size="14.00">Boxshot.js</text>
</g>
<!-- route_search&#45;&gt;component_boxshot -->
<g id="edge12" class="edge" data-name="route_search-&gt;component_boxshot">

<path fill="none" stroke="black" d="M198,-236.5C208.91,-227.91 222.27,-217.41 234.18,-208.04"/>
<polygon fill="black" stroke="black" points="236.06,-211.02 241.75,-202.08 231.73,-205.51 236.06,-211.02"/>
</g>
<!-- route_mdp&#45;&gt;component_menu -->
<g id="edge10" class="edge" data-name="route_details-&gt;component_menu" data-comment="route_mdp-&gt;component_menu">

<path fill="none" stroke="black" d="M243,-236.5C232.09,-227.91 218.73,-217.41 206.82,-208.04"/>
<polygon fill="black" stroke="black" points="209.27,-205.51 199.25,-202.08 204.94,-211.02 209.27,-205.51"/>
</g>
<!-- component_bob -->
<g id="node9" class="node" pointer-events="visible" data-name="component_synopsis" data-comment="component_bob">

<polygon fill="none" stroke="black" points="397.76,-200.8 322.24,-200.8 322.24,-164.8 403.76,-164.8 403.76,-194.8 397.76,-200.8" style=""/>
<polyline fill="none" stroke="black" points="397.76,-200.8 397.76,-194.8" style=""/>
<polyline fill="none" stroke="black" points="403.76,-194.8 397.76,-194.8" style=""/>
<text text-anchor="start" x="330.12" y="-179.6" font-family="Times,serif" font-weight="bold" font-size="14.00" style="">Synopsis.js</text>
</g>
<!-- route_mdp&#45;&gt;component_bob -->
<g id="edge9" class="edge" data-name="route_details-&gt;component_synopsis" data-comment="route_mdp-&gt;component_bob">

<path fill="none" stroke="black" d="M289.48,-236.32C301.61,-227.65 316.45,-217.05 329.61,-207.65"/>
<polygon fill="black" stroke="black" points="331.5,-210.6 337.6,-201.94 327.43,-204.9 331.5,-210.6"/>
</g>
<!-- route_browse&#45;&gt;component_boxshot -->
<g id="edge6" class="edge" data-name="route_browse-&gt;component_boxshot">

<path fill="none" stroke="black" d="M332.75,-236.5C321.72,-227.91 308.21,-217.41 296.16,-208.04"/>
<polygon fill="black" stroke="black" points="298.54,-205.45 288.5,-202.08 294.24,-210.98 298.54,-205.45"/>
</g>
<!-- route_browse&#45;&gt;component_bob -->
<g id="edge5" class="edge" data-name="route_browse-&gt;component_synopsis" data-comment="route_browse-&gt;component_bob">

<path fill="none" stroke="black" d="M356.98,-236.5C357.81,-229.21 358.8,-220.53 359.74,-212.34"/>
<polygon fill="black" stroke="black" points="363.22,-212.74 360.87,-202.41 356.26,-211.95 363.22,-212.74"/>
</g>
<!-- component_button -->
<g id="node10" class="node" pointer-events="visible" data-name="component_button">

<polygon fill="none" stroke="black" points="205.34,-128.8 140.66,-128.8 140.66,-92.8 211.34,-92.8 211.34,-122.8 205.34,-128.8"/>
<polyline fill="none" stroke="black" points="205.34,-128.8 205.34,-122.8"/>
<polyline fill="none" stroke="black" points="211.34,-122.8 205.34,-122.8"/>
<text text-anchor="start" x="148.58" y="-107.6" font-family="Times,serif" font-weight="bold" font-size="14.00">Button.js</text>
</g>
<!-- component_menu&#45;&gt;component_button -->
<g id="edge14" class="edge" data-name="component_menu-&gt;component_button">

<path fill="none" stroke="black" d="M176,-164.5C176,-157.21 176,-148.53 176,-140.34"/>
<polygon fill="black" stroke="black" points="179.5,-140.42 176,-130.42 172.5,-140.42 179.5,-140.42"/>
</g>
<!-- component_keyboard&#45;&gt;component_button -->
<g id="edge15" class="edge" data-name="component_keyboard-&gt;component_button">

<path fill="none" stroke="black" d="M104.48,-164.5C116.24,-155.83 130.67,-145.2 143.48,-135.76"/>
<polygon fill="black" stroke="black" points="145.26,-138.79 151.24,-130.04 141.11,-133.16 145.26,-138.79"/>
</g>
<!-- component_boxshot&#45;&gt;component_image -->
<g id="edge16" class="edge" data-name="component_boxshot-&gt;component_image">

<path fill="none" stroke="black" d="M262.48,-164.57C257.97,-139.11 246.41,-91.1 220,-60 219.45,-59.35 218.87,-58.71 218.27,-58.08"/>
<polygon fill="black" stroke="black" points="220.68,-55.53 210.81,-51.68 216.12,-60.84 220.68,-55.53"/>
</g>
<!-- component_text -->
<g id="node12" class="node" pointer-events="visible" data-name="component_text">

<polygon fill="none" stroke="black" points="286.32,-52 235.68,-52 235.68,-16 292.32,-16 292.32,-46 286.32,-52"/>
<polyline fill="none" stroke="black" points="286.32,-52 286.32,-46"/>
<polyline fill="none" stroke="black" points="292.32,-46 286.32,-46"/>
<text text-anchor="start" x="243.59" y="-30.8" font-family="Times,serif" font-weight="bold" font-size="14.00">Text.js</text>
</g>
<!-- component_bob&#45;&gt;component_text -->
<g id="edge17" class="edge" data-name="component_synopsis-&gt;component_text" data-comment="component_bob-&gt;component_text">

<path fill="none" stroke="black" d="M351.25,-164.38C334.14,-139 302.19,-91.62 282.06,-61.78" style=""/>
<polygon fill="black" stroke="black" points="285.07,-59.98 276.58,-53.65 279.27,-63.9 285.07,-59.98" style=""/>
</g>
<!-- component_button&#45;&gt;component_image -->
<g id="edge18" class="edge" data-name="component_button-&gt;component_image">

<path fill="none" stroke="black" d="M176,-92.45C176,-83.86 176,-73.27 176,-63.52"/>
<polygon fill="black" stroke="black" points="179.5,-63.77 176,-53.77 172.5,-63.77 179.5,-63.77"/>
</g>
<!-- component_button&#45;&gt;component_text -->
<g id="edge19" class="edge" data-name="component_button-&gt;component_text">

<path fill="none" stroke="black" d="M196.41,-92.45C207.96,-82.63 222.59,-70.2 235.28,-59.41"/>
<polygon fill="black" stroke="black" points="237.19,-62.38 242.55,-53.23 232.66,-57.04 237.19,-62.38"/>
</g>
<!-- test_browse -->
<g id="node13" class="node" pointer-events="visible" data-name="test_browse">

<polygon fill="none" stroke="black" points="1215.37,-344.8 1124.63,-344.8 1124.63,-308.8 1221.37,-308.8 1221.37,-338.8 1215.37,-344.8"/>
<polyline fill="none" stroke="black" points="1215.37,-344.8 1215.37,-338.8"/>
<polyline fill="none" stroke="black" points="1221.37,-338.8 1215.37,-338.8"/>
<text text-anchor="start" x="1132.57" y="-323.6" font-family="Times,serif" font-weight="bold" font-size="14.00">browse.test.js</text>
</g>
<!-- test_button -->
<g id="node14" class="node" pointer-events="visible" data-name="test_button">

<polygon fill="none" stroke="black" points="1100.78,-344.8 1013.22,-344.8 1013.22,-308.8 1106.78,-308.8 1106.78,-338.8 1100.78,-344.8"/>
<polyline fill="none" stroke="black" points="1100.78,-344.8 1100.78,-338.8"/>
<polyline fill="none" stroke="black" points="1106.78,-338.8 1100.78,-338.8"/>
<text text-anchor="start" x="1021.11" y="-323.6" font-family="Times,serif" font-weight="bold" font-size="14.00">button.test.js</text>
</g>
<!-- test_keyboard -->
<g id="node15" class="node" pointer-events="visible" data-name="test_keyboard">

<polygon fill="none" stroke="black" points="989.38,-344.8 884.62,-344.8 884.62,-308.8 995.38,-308.8 995.38,-338.8 989.38,-344.8"/>
<polyline fill="none" stroke="black" points="989.38,-344.8 989.38,-338.8"/>
<polyline fill="none" stroke="black" points="995.38,-338.8 989.38,-338.8"/>
<text text-anchor="start" x="892.56" y="-323.6" font-family="Times,serif" font-weight="bold" font-size="14.00">keyboard.test.js</text>
</g>
<!-- test_mdp -->
<g id="node16" class="node" pointer-events="visible" data-name="test_details" data-comment="test_mdp">

<polygon fill="none" stroke="black" points="860.49,-344.8 773.51,-344.8 773.51,-308.8 866.49,-308.8 866.49,-338.8 860.49,-344.8"/>
<polyline fill="none" stroke="black" points="860.49,-344.8 860.49,-338.8"/>
<polyline fill="none" stroke="black" points="866.49,-338.8 860.49,-338.8"/>
<text text-anchor="start" x="781.51" y="-323.6" font-family="Times,serif" font-weight="bold" font-size="14.00">details.test.js</text>
</g>
<!-- test_search -->
<g id="node17" class="node" pointer-events="visible" data-name="test_search">

<polygon fill="none" stroke="black" points="749.47,-344.8 662.53,-344.8 662.53,-308.8 755.47,-308.8 755.47,-338.8 749.47,-344.8"/>
<polyline fill="none" stroke="black" points="749.47,-344.8 749.47,-338.8"/>
<polyline fill="none" stroke="black" points="755.47,-338.8 749.47,-338.8"/>
<text text-anchor="start" x="670.51" y="-323.6" font-family="Times,serif" font-weight="bold" font-size="14.00">search.test.js</text>
</g>
<!-- test_smoke -->
<g id="node18" class="node" pointer-events="visible" data-name="test_smoke">

<polygon fill="none" stroke="black" points="638.21,-344.8 551.79,-344.8 551.79,-308.8 644.21,-308.8 644.21,-338.8 638.21,-344.8"/>
<polyline fill="none" stroke="black" points="638.21,-344.8 638.21,-338.8"/>
<polyline fill="none" stroke="black" points="644.21,-338.8 638.21,-338.8"/>
<text text-anchor="start" x="559.9" y="-323.6" font-family="Times,serif" font-weight="bold" font-size="14.00">smoke.test.js</text>
</g>
<!-- pom_index -->
<g id="node19" class="node" pointer-events="visible" data-name="pom_index">

<polygon fill="none" stroke="black" points="623.29,-272.8 566.71,-272.8 566.71,-236.8 629.29,-236.8 629.29,-266.8 623.29,-272.8"/>
<polyline fill="none" stroke="black" points="623.29,-272.8 623.29,-266.8"/>
<polyline fill="none" stroke="black" points="629.29,-266.8 623.29,-266.8"/>
<text text-anchor="start" x="574.86" y="-251.6" font-family="Times,serif" font-weight="bold" font-size="14.00">index.js</text>
</g>
<!-- test_smoke&#45;&gt;pom_index -->
<g id="edge20" class="edge" data-name="test_smoke-&gt;pom_index">

<path fill="none" stroke="black" d="M598,-308.5C598,-301.21 598,-292.53 598,-284.34"/>
<polygon fill="black" stroke="black" points="601.5,-284.42 598,-274.42 594.5,-284.42 601.5,-284.42"/>
</g>
<!-- pom_search -->
<g id="node20" class="node" pointer-events="visible" data-name="pom_search">

<polygon fill="none" stroke="black" points="672.32,-200.8 607.68,-200.8 607.68,-164.8 678.32,-164.8 678.32,-194.8 672.32,-200.8"/>
<polyline fill="none" stroke="black" points="672.32,-200.8 672.32,-194.8"/>
<polyline fill="none" stroke="black" points="678.32,-194.8 672.32,-194.8"/>
<text text-anchor="start" x="615.59" y="-179.6" font-family="Times,serif" font-weight="bold" font-size="14.00">Search.js</text>
</g>
<!-- pom_index&#45;&gt;pom_search -->
<g id="edge21" class="edge" data-name="pom_index-&gt;pom_search">

<path fill="none" stroke="black" d="M609.12,-236.5C614.19,-228.61 620.3,-219.1 625.93,-210.35"/>
<polygon fill="black" stroke="black" points="628.72,-212.48 631.19,-202.18 622.83,-208.7 628.72,-212.48"/>
</g>
<!-- pom_profile_gate -->
<g id="node21" class="node" pointer-events="visible" data-name="pom_profiles" data-comment="pom_profile_gate">

<polygon fill="none" stroke="black" points="765.98,-200.8 696.02,-200.8 696.02,-164.8 771.98,-164.8 771.98,-194.8 765.98,-200.8"/>
<polyline fill="none" stroke="black" points="765.98,-200.8 765.98,-194.8"/>
<polyline fill="none" stroke="black" points="771.98,-194.8 765.98,-194.8"/>
<text text-anchor="start" x="704.26" y="-179.6" font-family="Times,serif" font-weight="bold" font-size="14.00">Profiles.js</text>
</g>
<!-- pom_index&#45;&gt;pom_profile_gate -->
<g id="edge22" class="edge" data-name="pom_index-&gt;pom_profiles" data-comment="pom_index-&gt;pom_profile_gate">

<path fill="none" stroke="black" d="M629.54,-237.56C647.58,-228.28 670.49,-216.49 690.25,-206.32"/>
<polygon fill="black" stroke="black" points="691.62,-209.55 698.91,-201.86 688.41,-203.33 691.62,-209.55"/>
</g>
<!-- pom_mdp -->
<g id="node22" class="node" pointer-events="visible" data-name="pom_details" data-comment="pom_mdp">

<polygon fill="none" stroke="black" points="492.32,-200.8 427.68,-200.8 427.68,-164.8 498.32,-164.8 498.32,-194.8 492.32,-200.8"/>
<polyline fill="none" stroke="black" points="492.32,-200.8 492.32,-194.8"/>
<polyline fill="none" stroke="black" points="498.32,-194.8 492.32,-194.8"/>
<text text-anchor="start" x="435.59" y="-179.6" font-family="Times,serif" font-weight="bold" font-size="14.00">Details.js</text>
</g>
<!-- pom_index&#45;&gt;pom_mdp -->
<g id="edge23" class="edge" data-name="pom_index-&gt;pom_details" data-comment="pom_index-&gt;pom_mdp">

<path fill="none" stroke="black" d="M566.35,-237.39C548.51,-228.14 525.97,-216.45 506.5,-206.35"/>
<polygon fill="black" stroke="black" points="508.17,-203.28 497.68,-201.78 504.95,-209.49 508.17,-203.28"/>
</g>
<!-- pom_browse -->
<g id="node23" class="node" pointer-events="visible" data-name="pom_browse">

<polygon fill="none" stroke="black" points="583.93,-200.8 516.07,-200.8 516.07,-164.8 589.93,-164.8 589.93,-194.8 583.93,-200.8"/>
<polyline fill="none" stroke="black" points="583.93,-200.8 583.93,-194.8"/>
<polyline fill="none" stroke="black" points="589.93,-194.8 583.93,-194.8"/>
<text text-anchor="start" x="524.03" y="-179.6" font-family="Times,serif" font-weight="bold" font-size="14.00">Browse.js</text>
</g>
<!-- pom_index&#45;&gt;pom_browse -->
<g id="edge24" class="edge" data-name="pom_index-&gt;pom_browse">

<path fill="none" stroke="black" d="M586.88,-236.5C581.81,-228.61 575.7,-219.1 570.07,-210.35"/>
<polygon fill="black" stroke="black" points="573.17,-208.7 564.81,-202.18 567.28,-212.48 573.17,-208.7"/>
</g>
<!-- pom_keyboard -->
<g id="node24" class="node" pointer-events="visible" data-name="pom_keyboard">

<polygon fill="none" stroke="black" points="681.5,-128.8 598.5,-128.8 598.5,-92.8 687.5,-92.8 687.5,-122.8 681.5,-128.8"/>
<polyline fill="none" stroke="black" points="681.5,-128.8 681.5,-122.8"/>
<polyline fill="none" stroke="black" points="687.5,-122.8 681.5,-122.8"/>
<text text-anchor="start" x="606.25" y="-107.6" font-family="Times,serif" font-weight="bold" font-size="14.00">Keyboard.js</text>
</g>
<!-- pom_search&#45;&gt;pom_keyboard -->
<g id="edge25" class="edge" data-name="pom_search-&gt;pom_keyboard">

<path fill="none" stroke="black" d="M643,-164.5C643,-157.21 643,-148.53 643,-140.34"/>
<polygon fill="black" stroke="black" points="646.5,-140.42 643,-130.42 639.5,-140.42 646.5,-140.42"/>
</g>
</g>
</svg>