<?xml version="1.0" encoding="UTF-8" standalone="no"?>
<!DOCTYPE svg PUBLIC "-//W3C//DTD SVG 1.1//EN"
 "http://www.w3.org/Graphics/SVG/1.1/DTD/svg11.dtd">
<!-- Generated by graphviz version 7.0.4 (20221203.1631)
 -->
<!-- Title: G Pages: 1 -->
<svg width="1633pt" height="446pt"
 viewBox="0.00 0.00 1633.00 446.00" xmlns="http://www.w3.org/2000/svg" xmlns:xlink="http://www.w3.org/1999/xlink">
<g id="page0,1_graph0" class="graph" transform="scale(1 1) rotate(0) translate(4 442)">
<title>G</title>
<polygon fill="white" stroke="none" points="-4,4 -4,-442 1629,-442 1629,4 -4,4"/>
<g id="clust1" class="cluster">
<title>routes</title>
<path fill="none" stroke="black" d="M20,-8C20,-8 556,-8 556,-8 562,-8 568,-14 568,-20 568,-20 568,-411 568,-411 568,-417 562,-423 556,-423 556,-423 20,-423 20,-423 14,-423 8,-417 8,-411 8,-411 8,-20 8,-20 8,-14 14,-8 20,-8"/>
<text text-anchor="start" x="251" y="-408.8" font-family="Helvetica,Arial,sans-serif" font-weight="bold" font-size="14.00">Application</text>
</g>
<g id="clust2" class="cluster">
<title>tests</title>
<path fill="none" stroke="black" d="M812,-341C812,-341 1605,-341 1605,-341 1611,-341 1617,-347 1617,-353 1617,-353 1617,-418 1617,-418 1617,-424 1611,-430 1605,-430 1605,-430 812,-430 812,-430 806,-430 800,-424 800,-418 800,-418 800,-353 800,-353 800,-347 806,-341 812,-341"/>
<text text-anchor="start" x="1154.5" y="-415.8" font-family="Helvetica,Arial,sans-serif" font-weight="bold" font-size="14.00">Functional Tests</text>
</g>
<g id="clust3" class="cluster">
<title>page_object_model</title>
<path fill="none" stroke="black" d="M588,-60C588,-60 1124,-60 1124,-60 1130,-60 1136,-66 1136,-72 1136,-72 1136,-302 1136,-302 1136,-308 1130,-314 1124,-314 1124,-314 588,-314 588,-314 582,-314 576,-308 576,-302 576,-302 576,-72 576,-72 576,-66 582,-60 588,-60"/>
<text text-anchor="start" x="794.5" y="-68.8" font-family="Helvetica,Arial,sans-serif" font-weight="bold" font-size="14.00">Page Object Model</text>
</g>
<!-- route_index -->
<g id="node1" class="node">
<title>route_index</title>
<polygon fill="none" stroke="black" points="314,-392 258,-392 258,-356 320,-356 320,-386 314,-392"/>
<polyline fill="none" stroke="black" points="314,-392 314,-386"/>
<polyline fill="none" stroke="black" points="320,-386 314,-386"/>
<text text-anchor="start" x="266" y="-371.3" font-family="Times,serif" font-weight="bold" font-size="14.00">index.js</text>
</g>
<!-- route_profiles -->
<g id="node2" class="node">
<title>route_profiles</title>
<polygon fill="none" stroke="black" points="136,-313 16,-313 16,-263 142,-263 142,-307 136,-313"/>
<polyline fill="none" stroke="black" points="136,-313 136,-307"/>
<polyline fill="none" stroke="black" points="142,-307 136,-307"/>
<text text-anchor="start" x="50" y="-298.8" font-family="Times,serif" font-weight="bold" font-size="14.00">Profiles.js</text>
<text text-anchor="start" x="24" y="-270.8" font-family="Times,serif" font-size="14.00">/** @tag profiles */</text>
</g>
<!-- route_index&#45;&gt;route_profiles -->
<g id="edge2" class="edge">
<title>route_index&#45;&gt;route_profiles</title>
<path fill="none" stroke="green" d="M247.21,-356.28C216.49,-344 174.28,-327.11 139.83,-313.33"/>
<polygon fill="green" stroke="green" points="245.57,-359.4 256.16,-359.86 248.17,-352.9 245.57,-359.4"/>
</g>
<!-- route_search -->
<g id="node3" class="node">
<title>route_search</title>
<polygon fill="none" stroke="black" points="273.5,-313 160.5,-313 160.5,-263 279.5,-263 279.5,-307 273.5,-313"/>
<polyline fill="none" stroke="black" points="273.5,-313 273.5,-307"/>
<polyline fill="none" stroke="black" points="279.5,-307 273.5,-307"/>
<text text-anchor="start" x="193" y="-298.8" font-family="Times,serif" font-weight="bold" font-size="14.00">Search.js</text>
<text text-anchor="start" x="168.5" y="-270.8" font-family="Times,serif" font-size="14.00">/** @tag search */</text>
</g>
<!-- route_index&#45;&gt;route_search -->
<g id="edge4" class="edge">
<title>route_index&#45;&gt;route_search</title>
<path fill="none" stroke="green" d="M267.42,-346.72C258.67,-336.07 248.62,-323.84 240.03,-313.39"/>
<polygon fill="green" stroke="green" points="264.69,-348.92 273.74,-354.43 270.1,-344.48 264.69,-348.92"/>
</g>
<!-- route_details -->
<g id="node4" class="node">
<title>route_details</title>
<polygon fill="none" stroke="black" points="412,-313 298,-313 298,-263 418,-263 418,-307 412,-313"/>
<polyline fill="none" stroke="black" points="412,-313 412,-307"/>
<polyline fill="none" stroke="black" points="418,-307 412,-307"/>
<text text-anchor="start" x="331" y="-298.8" font-family="Times,serif" font-weight="bold" font-size="14.00">Details.js</text>
<text text-anchor="start" x="306" y="-270.8" font-family="Times,serif" font-size="14.00">/** @tag details */</text>
</g>
<!-- route_index&#45;&gt;route_details -->
<g id="edge3" class="edge">
<title>route_index&#45;&gt;route_details</title>
<path fill="none" stroke="green" d="M310.58,-346.72C319.33,-336.07 329.38,-323.84 337.97,-313.39"/>
<polygon fill="green" stroke="green" points="307.9,-344.48 304.26,-354.43 313.31,-348.92 307.9,-344.48"/>
</g>
<!-- route_browse -->
<g id="node5" class="node">
<title>route_browse</title>
<polygon fill="none" stroke="black" points="554,-313 436,-313 436,-263 560,-263 560,-307 554,-313"/>
<polyline fill="none" stroke="black" points="554,-313 554,-307"/>
<polyline fill="none" stroke="black" points="560,-307 554,-307"/>
<text text-anchor="start" x="469.5" y="-298.8" font-family="Times,serif" font-weight="bold" font-size="14.00">Browse.js</text>
<text text-anchor="start" x="444" y="-270.8" font-family="Times,serif" font-size="14.00">/** @tag browse */</text>
</g>
<!-- route_index&#45;&gt;route_browse -->
<g id="edge1" class="edge">
<title>route_index&#45;&gt;route_browse</title>
<path fill="none" stroke="black" d="M330.59,-356.28C361.16,-344 403.17,-327.11 437.46,-313.33"/>
<polygon fill="black" stroke="black" points="329.67,-352.88 321.69,-359.86 332.28,-359.38 329.67,-352.88"/>
</g>
<!-- component_menu -->
<g id="node6" class="node">
<title>component_menu</title>
<polygon fill="none" stroke="black" points="310.5,-220 251.5,-220 251.5,-184 316.5,-184 316.5,-214 310.5,-220"/>
<polyline fill="none" stroke="black" points="310.5,-220 310.5,-214"/>
<polyline fill="none" stroke="black" points="316.5,-214 310.5,-214"/>
<text text-anchor="start" x="259.5" y="-199.3" font-family="Times,serif" font-weight="bold" font-size="14.00">Menu.js</text>
</g>
<!-- route_profiles&#45;&gt;component_menu -->
<g id="edge7" class="edge">
<title>route_profiles&#45;&gt;component_menu</title>
<path fill="none" stroke="green" d="M153.01,-261.1C187.87,-248.63 225.4,-234.73 242,-227 246.26,-225.01 250.67,-222.75 254.96,-220.42"/>
<polygon fill="green" stroke="green" points="151.97,-257.76 143.72,-264.41 154.32,-264.35 151.97,-257.76"/>
</g>
<!-- component_image -->
<g id="node11" class="node">
<title>component_image</title>
<polygon fill="none" stroke="black" points="311.5,-52 250.5,-52 250.5,-16 317.5,-16 317.5,-46 311.5,-52"/>
<polyline fill="none" stroke="black" points="311.5,-52 311.5,-46"/>
<polyline fill="none" stroke="black" points="317.5,-46 311.5,-46"/>
<text text-anchor="start" x="258.5" y="-31.3" font-family="Times,serif" font-weight="bold" font-size="14.00">Image.js</text>
</g>
<!-- route_profiles&#45;&gt;component_image -->
<g id="edge8" class="edge">
<title>route_profiles&#45;&gt;component_image</title>
<path fill="none" stroke="black" d="M75.93,-251.54C75.47,-229.09 77.68,-200.05 89,-177 122.69,-108.41 149.77,-99.81 215,-60 225.77,-53.43 238.53,-48.2 250.12,-44.26"/>
<polygon fill="black" stroke="black" points="72.43,-251.58 76.34,-261.43 79.42,-251.29 72.43,-251.58"/>
</g>
<!-- route_search&#45;&gt;component_menu -->
<g id="edge11" class="edge">
<title>route_search&#45;&gt;component_menu</title>
<path fill="none" stroke="green" d="M245.31,-253.78C254.03,-242.33 263.45,-229.97 270.81,-220.31"/>
<polygon fill="green" stroke="green" points="242.71,-251.42 239.43,-261.5 248.27,-255.67 242.71,-251.42"/>
</g>
<!-- component_keyboard -->
<g id="node7" class="node">
<title>component_keyboard</title>
<polygon fill="none" stroke="black" points="227.5,-227 98.5,-227 98.5,-177 233.5,-177 233.5,-221 227.5,-227"/>
<polyline fill="none" stroke="black" points="227.5,-227 227.5,-221"/>
<polyline fill="none" stroke="black" points="233.5,-221 227.5,-221"/>
<text text-anchor="start" x="129.5" y="-212.8" font-family="Times,serif" font-weight="bold" font-size="14.00">Keyboard.js</text>
<text text-anchor="start" x="106.5" y="-184.8" font-family="Times,serif" font-size="14.00">/** @tag keyboard */</text>
</g>
<!-- route_search&#45;&gt;component_keyboard -->
<g id="edge13" class="edge">
<title>route_search&#45;&gt;component_keyboard</title>
<path fill="none" stroke="green" d="M198.26,-253.19C192.68,-244.5 186.79,-235.33 181.58,-227.24"/>
<polygon fill="green" stroke="green" points="195.21,-254.91 203.56,-261.43 201.1,-251.13 195.21,-254.91"/>
</g>
<!-- component_boxshot -->
<g id="node8" class="node">
<title>component_boxshot</title>
<polygon fill="none" stroke="black" points="405.5,-220 334.5,-220 334.5,-184 411.5,-184 411.5,-214 405.5,-220"/>
<polyline fill="none" stroke="black" points="405.5,-220 405.5,-214"/>
<polyline fill="none" stroke="black" points="411.5,-214 405.5,-214"/>
<text text-anchor="start" x="342.5" y="-199.3" font-family="Times,serif" font-weight="bold" font-size="14.00">Boxshot.js</text>
</g>
<!-- route_search&#45;&gt;component_boxshot -->
<g id="edge12" class="edge">
<title>route_search&#45;&gt;component_boxshot</title>
<path fill="none" stroke="black" d="M274.06,-257.32C296.62,-244.93 322.05,-230.97 341.47,-220.31"/>
<polygon fill="black" stroke="black" points="272.66,-254.09 265.58,-261.98 276.03,-260.23 272.66,-254.09"/>
</g>
<!-- route_details&#45;&gt;component_menu -->
<g id="edge10" class="edge">
<title>route_details&#45;&gt;component_menu</title>
<path fill="none" stroke="green" d="M329.04,-254.12C318.87,-242.58 307.84,-230.07 299.25,-220.31"/>
<polygon fill="green" stroke="green" points="326.36,-256.38 335.6,-261.57 331.61,-251.75 326.36,-256.38"/>
</g>
<!-- component_synopsis -->
<g id="node9" class="node">
<title>component_synopsis</title>
<polygon fill="none" stroke="black" points="504,-220 430,-220 430,-184 510,-184 510,-214 504,-220"/>
<polyline fill="none" stroke="black" points="504,-220 504,-214"/>
<polyline fill="none" stroke="black" points="510,-214 504,-214"/>
<text text-anchor="start" x="438" y="-199.3" font-family="Times,serif" font-weight="bold" font-size="14.00">Synopsis.js</text>
</g>
<!-- route_details&#45;&gt;component_synopsis -->
<g id="edge9" class="edge">
<title>route_details&#45;&gt;component_synopsis</title>
<path fill="none" stroke="black" d="M399.58,-255.82C415.58,-243.81 433.27,-230.54 446.92,-220.31"/>
<polygon fill="black" stroke="black" points="397.51,-253 391.61,-261.8 401.71,-258.6 397.51,-253"/>
</g>
<!-- route_browse&#45;&gt;component_boxshot -->
<g id="edge6" class="edge">
<title>route_browse&#45;&gt;component_boxshot</title>
<path fill="none" stroke="black" d="M452.59,-256.49C434.47,-244.31 414.27,-230.74 398.76,-220.31"/>
<polygon fill="black" stroke="black" points="450.34,-259.19 460.59,-261.86 454.24,-253.38 450.34,-259.19"/>
</g>
<!-- route_browse&#45;&gt;component_synopsis -->
<g id="edge5" class="edge">
<title>route_browse&#45;&gt;component_synopsis</title>
<path fill="none" stroke="black" d="M486.36,-252.08C482.71,-241.12 478.83,-229.49 475.77,-220.31"/>
<polygon fill="black" stroke="black" points="482.94,-252.89 489.42,-261.27 489.58,-250.67 482.94,-252.89"/>
</g>
<!-- component_button -->
<g id="node10" class="node">
<title>component_button</title>
<polygon fill="orange" stroke="black" points="337.5,-141 224.5,-141 224.5,-91 343.5,-91 343.5,-135 337.5,-141"/>
<polyline fill="none" stroke="black" points="337.5,-141 337.5,-135"/>
<polyline fill="none" stroke="black" points="343.5,-135 337.5,-135"/>
<text text-anchor="start" x="257" y="-126.8" font-family="Times,serif" font-weight="bold" font-size="14.00">Button.js</text>
<text text-anchor="start" x="232.5" y="-98.8" font-family="Times,serif" font-size="14.00">/** @tag button */</text>
</g>
<!-- component_menu&#45;&gt;component_button -->
<g id="edge14" class="edge">
<title>component_menu&#45;&gt;component_button</title>
<path fill="none" stroke="green" d="M284,-172.11C284,-162.11 284,-151 284,-141.39"/>
<polygon fill="green" stroke="green" points="280.5,-172.08 284,-182.08 287.5,-172.08 280.5,-172.08"/>
</g>
<!-- component_keyboard&#45;&gt;component_button -->
<g id="edge15" class="edge">
<title>component_keyboard&#45;&gt;component_button</title>
<path fill="none" stroke="green" d="M209.2,-170.25C222.63,-160.69 237.23,-150.29 249.95,-141.24"/>
<polygon fill="green" stroke="green" points="207.48,-167.18 201.36,-175.83 211.54,-172.88 207.48,-167.18"/>
</g>
<!-- component_boxshot&#45;&gt;component_image -->
<g id="edge16" class="edge">
<title>component_boxshot&#45;&gt;component_image</title>
<path fill="none" stroke="black" d="M376.96,-172.27C379.59,-141.14 378.73,-91.68 353,-60 344.33,-49.32 330.69,-43.2 317.82,-39.7"/>
<polygon fill="black" stroke="black" points="373.49,-171.8 375.93,-182.11 380.45,-172.53 373.49,-171.8"/>
</g>
<!-- component_text -->
<g id="node12" class="node">
<title>component_text</title>
<polygon fill="none" stroke="black" points="418,-52 368,-52 368,-16 424,-16 424,-46 418,-52"/>
<polyline fill="none" stroke="black" points="418,-52 418,-46"/>
<polyline fill="none" stroke="black" points="424,-46 418,-46"/>
<text text-anchor="start" x="376" y="-31.3" font-family="Times,serif" font-weight="bold" font-size="14.00">Text.js</text>
</g>
<!-- component_synopsis&#45;&gt;component_text -->
<g id="edge17" class="edge">
<title>component_synopsis&#45;&gt;component_text</title>
<path fill="none" stroke="black" d="M457.63,-173.26C442.3,-138.86 416.62,-81.24 403.79,-52.47"/>
<polygon fill="black" stroke="black" points="454.34,-174.46 461.6,-182.17 460.73,-171.61 454.34,-174.46"/>
</g>
<!-- component_button&#45;&gt;component_image -->
<g id="edge18" class="edge">
<title>component_button&#45;&gt;component_image</title>
<path fill="none" stroke="black" d="M284,-79.13C284,-69.86 284,-60.29 284,-52.44"/>
<polygon fill="black" stroke="black" points="280.5,-79.05 284,-89.05 287.5,-79.05 280.5,-79.05"/>
</g>
<!-- component_button&#45;&gt;component_text -->
<g id="edge19" class="edge">
<title>component_button&#45;&gt;component_text</title>
<path fill="none" stroke="black" d="M327.35,-84.04C342.36,-73.32 358.64,-61.68 371.59,-52.44"/>
<polygon fill="black" stroke="black" points="325.55,-81.02 319.44,-89.68 329.62,-86.72 325.55,-81.02"/>
</g>
<!-- test_browse -->
<g id="node13" class="node">
<title>test_browse</title>
<polygon fill="none" stroke="black" points="1603,-399 1485,-399 1485,-349 1609,-349 1609,-393 1603,-399"/>
<polyline fill="none" stroke="black" points="1603,-399 1603,-393"/>
<polyline fill="none" stroke="black" points="1609,-393 1603,-393"/>
<text text-anchor="start" x="1507.5" y="-384.8" font-family="Times,serif" font-weight="bold" font-size="14.00">browse.test.js</text>
<text text-anchor="start" x="1493" y="-356.8" font-family="Times,serif" font-size="14.00">/** @tag browse */</text>
</g>
<!-- test_button -->
<g id="node14" class="node">
<title>test_button</title>
<polygon fill="none" stroke="black" points="1460.5,-399 1347.5,-399 1347.5,-349 1466.5,-349 1466.5,-393 1460.5,-399"/>
<polyline fill="none" stroke="black" points="1460.5,-399 1460.5,-393"/>
<polyline fill="none" stroke="black" points="1466.5,-393 1460.5,-393"/>
<text text-anchor="start" x="1369" y="-384.8" font-family="Times,serif" font-weight="bold" font-size="14.00">button.test.js</text>
<text text-anchor="start" x="1355.5" y="-356.8" font-family="Times,serif" font-size="14.00">/** @tag button */</text>
</g>
<!-- test_keyboard -->
<g id="node15" class="node">
<title>test_keyboard</title>
<polygon fill="none" stroke="black" points="1323.5,-399 1194.5,-399 1194.5,-349 1329.5,-349 1329.5,-393 1323.5,-399"/>
<polyline fill="none" stroke="black" points="1323.5,-399 1323.5,-393"/>
<polyline fill="none" stroke="black" points="1329.5,-393 1323.5,-393"/>
<text text-anchor="start" x="1215.5" y="-384.8" font-family="Times,serif" font-weight="bold" font-size="14.00">keyboard.test.js</text>
<text text-anchor="start" x="1202.5" y="-356.8" font-family="Times,serif" font-size="14.00">/** @tag keyboard */</text>
</g>
<!-- test_details -->
<g id="node16" class="node">
<title>test_details</title>
<polygon fill="none" stroke="black" points="1170,-399 1056,-399 1056,-349 1176,-349 1176,-393 1170,-399"/>
<polyline fill="none" stroke="black" points="1170,-399 1170,-393"/>
<polyline fill="none" stroke="black" points="1176,-393 1170,-393"/>
<text text-anchor="start" x="1078" y="-384.8" font-family="Times,serif" font-weight="bold" font-size="14.00">details.test.js</text>
<text text-anchor="start" x="1064" y="-356.8" font-family="Times,serif" font-size="14.00">/** @tag details */</text>
</g>
<!-- test_search -->
<g id="node17" class="node">
<title>test_search</title>
<polygon fill="none" stroke="black" points="1031.5,-399 918.5,-399 918.5,-349 1037.5,-349 1037.5,-393 1031.5,-399"/>
<polyline fill="none" stroke="black" points="1031.5,-399 1031.5,-393"/>
<polyline fill="none" stroke="black" points="1037.5,-393 1031.5,-393"/>
<text text-anchor="start" x="940" y="-384.8" font-family="Times,serif" font-weight="bold" font-size="14.00">search.test.js</text>
<text text-anchor="start" x="926.5" y="-356.8" font-family="Times,serif" font-size="14.00">/** @tag search */</text>
</g>
<!-- test_smoke -->
<g id="node18" class="node">
<title>test_smoke</title>
<polygon fill="none" stroke="black" points="894,-392 808,-392 808,-356 900,-356 900,-386 894,-392"/>
<polyline fill="none" stroke="black" points="894,-392 894,-386"/>
<polyline fill="none" stroke="black" points="900,-386 894,-386"/>
<text text-anchor="start" x="816" y="-371.3" font-family="Times,serif" font-weight="bold" font-size="14.00">smoke.test.js</text>
</g>
<!-- pom_index -->
<g id="node19" class="node">
<title>pom_index</title>
<polygon fill="none" stroke="black" points="879,-306 823,-306 823,-270 885,-270 885,-300 879,-306"/>
<polyline fill="none" stroke="black" points="879,-306 879,-300"/>
<polyline fill="none" stroke="black" points="885,-300 879,-300"/>
<text text-anchor="start" x="831" y="-285.3" font-family="Times,serif" font-weight="bold" font-size="14.00">index.js</text>
</g>
<!-- test_smoke&#45;&gt;pom_index -->
<g id="edge20" class="edge">
<title>test_smoke&#45;&gt;pom_index</title>
<path fill="none" stroke="green" d="M854,-355.6C854,-344.67 854,-330.32 854,-317.73"/>
<polygon fill="green" stroke="green" points="857.5,-317.9 854,-307.9 850.5,-317.9 857.5,-317.9"/>
</g>
<!-- pom_search -->
<g id="node20" class="node">
<title>pom_search</title>
<polygon fill="none" stroke="black" points="977.5,-227 864.5,-227 864.5,-177 983.5,-177 983.5,-221 977.5,-227"/>
<polyline fill="none" stroke="black" points="977.5,-227 977.5,-221"/>
<polyline fill="none" stroke="black" points="983.5,-221 977.5,-221"/>
<text text-anchor="start" x="897" y="-212.8" font-family="Times,serif" font-weight="bold" font-size="14.00">Search.js</text>
<text text-anchor="start" x="872.5" y="-184.8" font-family="Times,serif" font-size="14.00">/** @tag search */</text>
</g>
<!-- pom_index&#45;&gt;pom_search -->
<g id="edge21" class="edge">
<title>pom_index&#45;&gt;pom_search</title>
<path fill="none" stroke="green" d="M868.5,-269.6C876.61,-259.87 886.98,-247.42 896.56,-235.93"/>
<polygon fill="green" stroke="green" points="898.99,-238.48 902.71,-228.55 893.62,-233.99 898.99,-238.48"/>
</g>
<!-- pom_profiles -->
<g id="node21" class="node">
<title>pom_profiles</title>
<polygon fill="none" stroke="black" points="1122,-227 1002,-227 1002,-177 1128,-177 1128,-221 1122,-227"/>
<polyline fill="none" stroke="black" points="1122,-227 1122,-221"/>
<polyline fill="none" stroke="black" points="1128,-221 1122,-221"/>
<text text-anchor="start" x="1036" y="-212.8" font-family="Times,serif" font-weight="bold" font-size="14.00">Profiles.js</text>
<text text-anchor="start" x="1010" y="-184.8" font-family="Times,serif" font-size="14.00">/** @tag profiles */</text>
</g>
<!-- pom_index&#45;&gt;pom_profiles -->
<g id="edge22" class="edge">
<title>pom_index&#45;&gt;pom_profiles</title>
<path fill="none" stroke="green" d="M885.13,-274.61C913.41,-263.35 956.18,-246.32 992.93,-231.69"/>
<polygon fill="green" stroke="green" points="994.21,-234.95 1002.21,-228 991.62,-228.45 994.21,-234.95"/>
</g>
<!-- pom_details -->
<g id="node22" class="node">
<title>pom_details</title>
<polygon fill="none" stroke="black" points="698,-227 584,-227 584,-177 704,-177 704,-221 698,-227"/>
<polyline fill="none" stroke="black" points="698,-227 698,-221"/>
<polyline fill="none" stroke="black" points="704,-221 698,-221"/>
<text text-anchor="start" x="617" y="-212.8" font-family="Times,serif" font-weight="bold" font-size="14.00">Details.js</text>
<text text-anchor="start" x="592" y="-184.8" font-family="Times,serif" font-size="14.00">/** @tag details */</text>
</g>
<!-- pom_index&#45;&gt;pom_details -->
<g id="edge23" class="edge">
<title>pom_index&#45;&gt;pom_details</title>
<path fill="none" stroke="green" d="M822.56,-274.42C794.23,-263.09 751.56,-246.02 715.02,-231.41"/>
<polygon fill="green" stroke="green" points="716.4,-228.19 705.81,-227.72 713.8,-234.69 716.4,-228.19"/>
</g>
<!-- pom_browse -->
<g id="node23" class="node">
<title>pom_browse</title>
<polygon fill="none" stroke="black" points="840,-227 722,-227 722,-177 846,-177 846,-221 840,-227"/>
<polyline fill="none" stroke="black" points="840,-227 840,-221"/>
<polyline fill="none" stroke="black" points="846,-221 840,-221"/>
<text text-anchor="start" x="755.5" y="-212.8" font-family="Times,serif" font-weight="bold" font-size="14.00">Browse.js</text>
<text text-anchor="start" x="730" y="-184.8" font-family="Times,serif" font-size="14.00">/** @tag browse */</text>
</g>
<!-- pom_index&#45;&gt;pom_browse -->
<g id="edge24" class="edge">
<title>pom_index&#45;&gt;pom_browse</title>
<path fill="none" stroke="green" d="M839.5,-269.6C831.39,-259.87 821.02,-247.42 811.44,-235.93"/>
<polygon fill="green" stroke="green" points="814.38,-233.99 805.29,-228.55 809.01,-238.48 814.38,-233.99"/>
</g>
<!-- pom_keyboard -->
<g id="node24" class="node">
<title>pom_keyboard</title>
<polygon fill="none" stroke="black" points="985.5,-141 856.5,-141 856.5,-91 991.5,-91 991.5,-135 985.5,-141"/>
<polyline fill="none" stroke="black" points="985.5,-141 985.5,-135"/>
<polyline fill="none" stroke="black" points="991.5,-135 985.5,-135"/>
<text text-anchor="start" x="887.5" y="-126.8" font-family="Times,serif" font-weight="bold" font-size="14.00">Keyboard.js</text>
<text text-anchor="start" x="864.5" y="-98.8" font-family="Times,serif" font-size="14.00">/** @tag keyboard */</text>
</g>
<!-- pom_search&#45;&gt;pom_keyboard -->
<g id="edge25" class="edge">
<title>pom_search&#45;&gt;pom_keyboard</title>
<path fill="none" stroke="green" d="M924,-176.7C924,-169.22 924,-160.81 924,-152.72"/>
<polygon fill="green" stroke="green" points="927.5,-152.76 924,-142.76 920.5,-152.76 927.5,-152.76"/>
</g>
</g>
</svg>
